<svg width="822" height="476" viewBox="0 0 822 476" fill="none" xmlns="http://www.w3.org/2000/svg">
<path d="M803.301 475.189H18.7403C10.9091 475.189 4.56128 468.322 4.56128 459.869V17.6554C4.56128 9.18876 10.9091 2.33536 18.7403 2.33536H803.301C811.131 2.33536 817.479 9.18876 817.479 17.6554V459.869C817.479 468.322 811.131 475.189 803.301 475.189Z" fill="#493C55"/>
<path d="M18.044 475.189C17.3629 475.189 16.8099 474.589 16.8099 473.855V465.855C16.8099 465.109 17.3629 464.522 18.044 464.522C18.7262 464.522 19.2781 465.109 19.2781 465.855V473.855C19.2781 474.589 18.7262 475.189 18.044 475.189Z" fill="#FFF8CF"/>
<path d="M18.044 207.829C17.3629 207.829 16.8099 207.242 16.8099 206.496V191.242C16.8099 190.509 17.3629 189.909 18.044 189.909C18.7262 189.909 19.2781 190.509 19.2781 191.242V206.496C19.2781 207.242 18.7262 207.829 18.044 207.829ZM18.044 238.349C17.3629 238.349 16.8099 237.749 16.8099 237.016V221.762C16.8099 221.016 17.3629 220.429 18.044 220.429C18.7262 220.429 19.2781 221.016 19.2781 221.762V237.016C19.2781 237.749 18.7262 238.349 18.044 238.349ZM18.044 268.855C17.3629 268.855 16.8099 268.255 16.8099 267.522V252.269C16.8099 251.535 17.3629 250.935 18.044 250.935C18.7262 250.935 19.2781 251.535 19.2781 252.269V267.522C19.2781 268.255 18.7262 268.855 18.044 268.855ZM18.044 299.375C17.3629 299.375 16.8099 298.775 16.8099 298.042V282.775C16.8099 282.042 17.3629 281.442 18.044 281.442C18.7262 281.442 19.2781 282.042 19.2781 282.775V298.042C19.2781 298.775 18.7262 299.375 18.044 299.375ZM18.044 329.882C17.3629 329.882 16.8099 329.282 16.8099 328.549V313.296C16.8099 312.562 17.3629 311.962 18.044 311.962C18.7262 311.962 19.2781 312.562 19.2781 313.296V328.549C19.2781 329.282 18.7262 329.882 18.044 329.882ZM18.044 360.389C17.3629 360.389 16.8099 359.802 16.8099 359.055V343.802C16.8099 343.069 17.3629 342.469 18.044 342.469C18.7262 342.469 19.2781 343.069 19.2781 343.802V359.055C19.2781 359.802 18.7262 360.389 18.044 360.389ZM18.044 390.909C17.3629 390.909 16.8099 390.309 16.8099 389.575V374.322C16.8099 373.575 17.3629 372.989 18.044 372.989C18.7262 372.989 19.2781 373.575 19.2781 374.322V389.575C19.2781 390.309 18.7262 390.909 18.044 390.909ZM18.044 421.415C17.3629 421.415 16.8099 420.815 16.8099 420.082V404.829C16.8099 404.095 17.3629 403.495 18.044 403.495C18.7262 403.495 19.2781 404.095 19.2781 404.829V420.082C19.2781 420.815 18.7262 421.415 18.044 421.415ZM18.044 451.922C17.3629 451.922 16.8099 451.335 16.8099 450.589V435.335C16.8099 434.602 17.3629 434.002 18.044 434.002C18.7262 434.002 19.2781 434.602 19.2781 435.335V450.589C19.2781 451.335 18.7262 451.922 18.044 451.922Z" fill="#FFF8CF"/>
<path d="M18.044 177.322C17.3629 177.322 16.8099 176.722 16.8099 175.989V167.989C16.8099 167.255 17.3629 166.655 18.044 166.655C18.7262 166.655 19.2781 167.255 19.2781 167.989V175.989C19.2781 176.722 18.7262 177.322 18.044 177.322Z" fill="#FFF8CF"/>
<path d="M36.8571 209.162C36.1759 209.162 35.623 208.576 35.623 207.829V199.829C35.623 199.096 36.1759 198.496 36.8571 198.496C37.5383 198.496 38.0912 199.096 38.0912 199.829V207.829C38.0912 208.576 37.5383 209.162 36.8571 209.162Z" fill="#FFF8CF"/>
<path d="M36.8571 239.522C36.1759 239.522 35.623 238.922 35.623 238.189V223.016C35.623 222.282 36.1759 221.682 36.8571 221.682C37.5383 221.682 38.0912 222.282 38.0912 223.016V238.189C38.0912 238.922 37.5383 239.522 36.8571 239.522ZM36.8571 269.882C36.1759 269.882 35.623 269.282 35.623 268.549V253.362C35.623 252.629 36.1759 252.029 36.8571 252.029C37.5383 252.029 38.0912 252.629 38.0912 253.362V268.549C38.0912 269.282 37.5383 269.882 36.8571 269.882ZM36.8571 300.229C36.1759 300.229 35.623 299.629 35.623 298.896V283.722C35.623 282.989 36.1759 282.389 36.8571 282.389C37.5383 282.389 38.0912 282.989 38.0912 283.722V298.896C38.0912 299.629 37.5383 300.229 36.8571 300.229ZM36.8571 330.589C36.1759 330.589 35.623 329.989 35.623 329.255V314.082C35.623 313.336 36.1759 312.749 36.8571 312.749C37.5383 312.749 38.0912 313.336 38.0912 314.082V329.255C38.0912 329.989 37.5383 330.589 36.8571 330.589ZM36.8571 360.935C36.1759 360.935 35.623 360.349 35.623 359.602V344.429C35.623 343.696 36.1759 343.096 36.8571 343.096C37.5383 343.096 38.0912 343.696 38.0912 344.429V359.602C38.0912 360.349 37.5383 360.935 36.8571 360.935ZM36.8571 391.295C36.1759 391.295 35.623 390.695 35.623 389.962V374.789C35.623 374.055 36.1759 373.455 36.8571 373.455C37.5383 373.455 38.0912 374.055 38.0912 374.789V389.962C38.0912 390.695 37.5383 391.295 36.8571 391.295ZM36.8571 421.655C36.1759 421.655 35.623 421.055 35.623 420.322V405.135C35.623 404.402 36.1759 403.802 36.8571 403.802C37.5383 403.802 38.0912 404.402 38.0912 405.135V420.322C38.0912 421.055 37.5383 421.655 36.8571 421.655ZM36.8571 452.002C36.1759 452.002 35.623 451.415 35.623 450.669V435.495C35.623 434.762 36.1759 434.162 36.8571 434.162C37.5383 434.162 38.0912 434.762 38.0912 435.495V450.669C38.0912 451.415 37.5383 452.002 36.8571 452.002Z" fill="#FFF8CF"/>
<path d="M36.8571 475.189C36.1759 475.189 35.623 474.589 35.623 473.855V465.855C35.623 465.109 36.1759 464.522 36.8571 464.522C37.5383 464.522 38.0912 465.109 38.0912 465.855V473.855C38.0912 474.589 37.5383 475.189 36.8571 475.189Z" fill="#FFF8CF"/>
<path d="M786.536 209.162C785.853 209.162 785.3 208.576 785.3 207.829V199.829C785.3 199.096 785.853 198.496 786.536 198.496C787.217 198.496 787.77 199.096 787.77 199.829V207.829C787.77 208.576 787.217 209.162 786.536 209.162Z" fill="#FFF8CF"/>
<path d="M786.536 239.522C785.853 239.522 785.3 238.922 785.3 238.189V223.016C785.3 222.282 785.853 221.682 786.536 221.682C787.217 221.682 787.77 222.282 787.77 223.016V238.189C787.77 238.922 787.217 239.522 786.536 239.522ZM786.536 269.882C785.853 269.882 785.3 269.282 785.3 268.549V253.362C785.3 252.629 785.853 252.029 786.536 252.029C787.217 252.029 787.77 252.629 787.77 253.362V268.549C787.77 269.282 787.217 269.882 786.536 269.882ZM786.536 300.229C785.853 300.229 785.3 299.629 785.3 298.896V283.722C785.3 282.989 785.853 282.389 786.536 282.389C787.217 282.389 787.77 282.989 787.77 283.722V298.896C787.77 299.629 787.217 300.229 786.536 300.229ZM786.536 330.589C785.853 330.589 785.3 329.989 785.3 329.255V314.082C785.3 313.336 785.853 312.749 786.536 312.749C787.217 312.749 787.77 313.336 787.77 314.082V329.255C787.77 329.989 787.217 330.589 786.536 330.589ZM786.536 360.935C785.853 360.935 785.3 360.349 785.3 359.602V344.429C785.3 343.696 785.853 343.096 786.536 343.096C787.217 343.096 787.77 343.696 787.77 344.429V359.602C787.77 360.349 787.217 360.935 786.536 360.935ZM786.536 391.295C785.853 391.295 785.3 390.695 785.3 389.962V374.789C785.3 374.055 785.853 373.455 786.536 373.455C787.217 373.455 787.77 374.055 787.77 374.789V389.962C787.77 390.695 787.217 391.295 786.536 391.295ZM786.536 421.655C785.853 421.655 785.3 421.055 785.3 420.322V405.135C785.3 404.402 785.853 403.802 786.536 403.802C787.217 403.802 787.77 404.402 787.77 405.135V420.322C787.77 421.055 787.217 421.655 786.536 421.655ZM786.536 452.002C785.853 452.002 785.3 451.415 785.3 450.669V435.495C785.3 434.762 785.853 434.162 786.536 434.162C787.217 434.162 787.77 434.762 787.77 435.495V450.669C787.77 451.415 787.217 452.002 786.536 452.002Z" fill="#FFF8CF"/>
<path d="M786.536 475.189C785.853 475.189 785.3 474.589 785.3 473.855V465.855C785.3 465.109 785.853 464.522 786.536 464.522C787.217 464.522 787.77 465.109 787.77 465.855V473.855C787.77 474.589 787.217 475.189 786.536 475.189Z" fill="#FFF8CF"/>
<path d="M803.301 475.189H786.536C787.217 475.189 787.77 474.589 787.77 473.855V465.855C787.77 465.109 787.217 464.522 786.536 464.522C785.853 464.522 785.3 465.109 785.3 465.855V473.855C785.3 474.589 785.853 475.189 786.536 475.189H36.8572C37.5384 475.189 38.0913 474.589 38.0913 473.855V465.855C38.0913 465.109 37.5384 464.522 36.8572 464.522C36.176 464.522 35.6231 465.109 35.6231 465.855V473.855C35.6231 474.589 36.176 475.189 36.8572 475.189H18.7403C18.56 475.189 18.3806 475.175 18.2022 475.175C18.8096 475.082 19.2782 474.522 19.2782 473.855V465.855C19.2782 465.109 18.7263 464.522 18.0441 464.522C17.363 464.522 16.81 465.109 16.81 465.855V473.855C16.81 474.482 17.2141 475.002 17.7568 475.149C10.3852 474.602 4.56128 467.962 4.56128 459.869V127.949C7.17938 140.856 11.153 154.082 17.0159 167.255C16.8858 167.469 16.81 167.722 16.81 167.989V175.989C16.81 176.722 17.363 177.322 18.0441 177.322C18.7263 177.322 19.2782 176.722 19.2782 175.989V172.135C23.7175 181.335 29.1183 190.496 35.6675 199.482C35.6391 199.589 35.6231 199.709 35.6231 199.829V207.829C35.6231 208.575 36.176 209.162 36.8572 209.162C37.5384 209.162 38.0913 208.575 38.0913 207.829V202.722C85.6034 264.935 189.792 318.202 413.554 321.122C419.155 321.189 424.613 321.229 430.061 321.229C641.221 321.229 740.025 266.775 785.3 202.909V207.829C785.3 208.575 785.853 209.162 786.536 209.162C787.217 209.162 787.77 208.575 787.77 207.829V199.829C787.77 199.695 787.749 199.549 787.71 199.429C793.786 190.429 798.832 181.282 803.011 172.069V175.989C803.011 176.722 803.565 177.322 804.246 177.322C804.927 177.322 805.48 176.722 805.48 175.989V167.989C805.48 167.655 805.365 167.349 805.176 167.109C810.973 153.322 814.896 139.482 817.479 126.002V154.309C814.685 166.282 810.738 178.429 805.275 190.509C805.054 190.149 804.675 189.909 804.246 189.909C803.565 189.909 803.011 190.509 803.011 191.242V195.335C798.651 204.282 793.427 213.176 787.195 221.882C787.003 221.749 786.777 221.682 786.536 221.682C785.853 221.682 785.3 222.282 785.3 223.016V224.482C737.667 288.696 633.915 342.855 413.908 342.855C413.726 342.855 413.517 342.855 413.335 342.855C184.79 342.762 96.251 282.842 54.5539 240.296L55.6041 391.215C55.6041 399.669 61.9473 406.535 69.7837 406.535L785.3 407.682V420.322C785.3 421.055 785.853 421.655 786.536 421.655C787.217 421.655 787.77 421.055 787.77 420.322V407.695L803.011 407.722V420.082C803.011 420.815 803.565 421.415 804.246 421.415C804.927 421.415 805.48 420.815 805.48 420.082V407.722L817.479 407.735V459.869C817.479 467.842 811.838 474.389 804.632 475.122C805.125 474.935 805.48 474.442 805.48 473.855V465.855C805.48 465.109 804.927 464.522 804.246 464.522C803.565 464.522 803.011 465.109 803.011 465.855V473.855C803.011 474.509 803.452 475.055 804.031 475.162C803.789 475.175 803.545 475.189 803.301 475.189ZM786.536 434.162C785.853 434.162 785.3 434.762 785.3 435.495V450.669C785.3 451.415 785.853 452.002 786.536 452.002C787.217 452.002 787.77 451.415 787.77 450.669V435.495C787.77 434.762 787.217 434.162 786.536 434.162ZM36.8572 434.162C36.176 434.162 35.6231 434.762 35.6231 435.495V450.669C35.6231 451.415 36.176 452.002 36.8572 452.002C37.5384 452.002 38.0913 451.415 38.0913 450.669V435.495C38.0913 434.762 37.5384 434.162 36.8572 434.162ZM804.246 434.002C803.565 434.002 803.011 434.602 803.011 435.335V450.589C803.011 451.335 803.565 451.922 804.246 451.922C804.927 451.922 805.48 451.335 805.48 450.589V435.335C805.48 434.602 804.927 434.002 804.246 434.002ZM18.0441 434.002C17.363 434.002 16.81 434.602 16.81 435.335V450.589C16.81 451.335 17.363 451.922 18.0441 451.922C18.7263 451.922 19.2782 451.335 19.2782 450.589V435.335C19.2782 434.602 18.7263 434.002 18.0441 434.002ZM36.8572 403.802C36.176 403.802 35.6231 404.402 35.6231 405.135V420.322C35.6231 421.055 36.176 421.655 36.8572 421.655C37.5384 421.655 38.0913 421.055 38.0913 420.322V405.135C38.0913 404.402 37.5384 403.802 36.8572 403.802ZM18.0441 403.495C17.363 403.495 16.81 404.095 16.81 404.829V420.082C16.81 420.815 17.363 421.415 18.0441 421.415C18.7263 421.415 19.2782 420.815 19.2782 420.082V404.829C19.2782 404.095 18.7263 403.495 18.0441 403.495ZM36.8572 373.455C36.176 373.455 35.6231 374.055 35.6231 374.789V389.962C35.6231 390.695 36.176 391.295 36.8572 391.295C37.5384 391.295 38.0913 390.695 38.0913 389.962V374.789C38.0913 374.055 37.5384 373.455 36.8572 373.455ZM18.0441 372.989C17.363 372.989 16.81 373.575 16.81 374.322V389.575C16.81 390.309 17.363 390.909 18.0441 390.909C18.7263 390.909 19.2782 390.309 19.2782 389.575V374.322C19.2782 373.575 18.7263 372.989 18.0441 372.989ZM36.8572 343.096C36.176 343.096 35.6231 343.695 35.6231 344.429V359.602C35.6231 360.349 36.176 360.935 36.8572 360.935C37.5384 360.935 38.0913 360.349 38.0913 359.602V344.429C38.0913 343.695 37.5384 343.096 36.8572 343.096ZM18.0441 342.469C17.363 342.469 16.81 343.069 16.81 343.802V359.055C16.81 359.802 17.363 360.389 18.0441 360.389C18.7263 360.389 19.2782 359.802 19.2782 359.055V343.802C19.2782 343.069 18.7263 342.469 18.0441 342.469ZM36.8572 312.749C36.176 312.749 35.6231 313.336 35.6231 314.082V329.255C35.6231 329.989 36.176 330.589 36.8572 330.589C37.5384 330.589 38.0913 329.989 38.0913 329.255V314.082C38.0913 313.336 37.5384 312.749 36.8572 312.749ZM18.0441 311.962C17.363 311.962 16.81 312.562 16.81 313.296V328.549C16.81 329.282 17.363 329.882 18.0441 329.882C18.7263 329.882 19.2782 329.282 19.2782 328.549V313.296C19.2782 312.562 18.7263 311.962 18.0441 311.962ZM36.8572 282.389C36.176 282.389 35.6231 282.989 35.6231 283.722V298.896C35.6231 299.629 36.176 300.229 36.8572 300.229C37.5384 300.229 38.0913 299.629 38.0913 298.896V283.722C38.0913 282.989 37.5384 282.389 36.8572 282.389ZM18.0441 281.442C17.363 281.442 16.81 282.042 16.81 282.775V298.042C16.81 298.775 17.363 299.375 18.0441 299.375C18.7263 299.375 19.2782 298.775 19.2782 298.042V282.775C19.2782 282.042 18.7263 281.442 18.0441 281.442ZM36.8572 252.029C36.176 252.029 35.6231 252.629 35.6231 253.362V268.549C35.6231 269.282 36.176 269.882 36.8572 269.882C37.5384 269.882 38.0913 269.282 38.0913 268.549V253.362C38.0913 252.629 37.5384 252.029 36.8572 252.029ZM18.0441 250.935C17.363 250.935 16.81 251.535 16.81 252.269V267.522C16.81 268.255 17.363 268.855 18.0441 268.855C18.7263 268.855 19.2782 268.255 19.2782 267.522V252.269C19.2782 251.535 18.7263 250.935 18.0441 250.935ZM36.8572 221.682C36.176 221.682 35.6231 222.282 35.6231 223.016V238.189C35.6231 238.922 36.176 239.522 36.8572 239.522C37.5384 239.522 38.0913 238.922 38.0913 238.189V223.016C38.0913 222.282 37.5384 221.682 36.8572 221.682ZM18.0441 220.429C17.363 220.429 16.81 221.016 16.81 221.762V237.016C16.81 237.749 17.363 238.349 18.0441 238.349C18.7263 238.349 19.2782 237.749 19.2782 237.016V221.762C19.2782 221.016 18.7263 220.429 18.0441 220.429ZM18.0441 189.909C17.363 189.909 16.81 190.509 16.81 191.242V206.496C16.81 207.242 17.363 207.829 18.0441 207.829C18.7263 207.829 19.2782 207.242 19.2782 206.496V191.242C19.2782 190.509 18.7263 189.909 18.0441 189.909Z" fill="#342D34"/>
<path d="M804.043 474.813C803.307 474.813 802.708 474.213 802.708 473.48V465.48C802.708 464.733 803.307 464.147 804.043 464.147C804.779 464.147 805.376 464.733 805.376 465.48V473.48C805.376 474.213 804.779 474.813 804.043 474.813Z" fill="#FFF8CF"/>
<path d="M804.043 207.453C803.307 207.453 802.708 206.867 802.708 206.12V190.867C802.708 190.133 803.307 189.533 804.043 189.533C804.779 189.533 805.376 190.133 805.376 190.867V206.12C805.376 206.867 804.779 207.453 804.043 207.453ZM804.043 237.974C803.307 237.974 802.708 237.374 802.708 236.64V221.387C802.708 220.64 803.307 220.053 804.043 220.053C804.779 220.053 805.376 220.64 805.376 221.387V236.64C805.376 237.374 804.779 237.974 804.043 237.974ZM804.043 268.48C803.307 268.48 802.708 267.88 802.708 267.147V251.893C802.708 251.16 803.307 250.56 804.043 250.56C804.779 250.56 805.376 251.16 805.376 251.893V267.147C805.376 267.88 804.779 268.48 804.043 268.48ZM804.043 299C803.307 299 802.708 298.4 802.708 297.667V282.4C802.708 281.667 803.307 281.067 804.043 281.067C804.779 281.067 805.376 281.667 805.376 282.4V297.667C805.376 298.4 804.779 299 804.043 299ZM804.043 329.507C803.307 329.507 802.708 328.907 802.708 328.174V312.92C802.708 312.187 803.307 311.587 804.043 311.587C804.779 311.587 805.376 312.187 805.376 312.92V328.174C805.376 328.907 804.779 329.507 804.043 329.507ZM804.043 360.013C803.307 360.013 802.708 359.427 802.708 358.68V343.427C802.708 342.693 803.307 342.093 804.043 342.093C804.779 342.093 805.376 342.693 805.376 343.427V358.68C805.376 359.427 804.779 360.013 804.043 360.013ZM804.043 390.533C803.307 390.533 802.708 389.933 802.708 389.2V373.947C802.708 373.2 803.307 372.613 804.043 372.613C804.779 372.613 805.376 373.2 805.376 373.947V389.2C805.376 389.933 804.779 390.533 804.043 390.533ZM804.043 421.04C803.307 421.04 802.708 420.44 802.708 419.707V404.453C802.708 403.72 803.307 403.12 804.043 403.12C804.779 403.12 805.376 403.72 805.376 404.453V419.707C805.376 420.44 804.779 421.04 804.043 421.04ZM804.043 451.547C803.307 451.547 802.708 450.96 802.708 450.213V434.96C802.708 434.227 803.307 433.627 804.043 433.627C804.779 433.627 805.376 434.227 805.376 434.96V450.213C805.376 450.96 804.779 451.547 804.043 451.547Z" fill="#FFF8CF"/>
<path d="M804.043 176.947C803.307 176.947 802.708 176.347 802.708 175.613V167.613C802.708 166.88 803.307 166.28 804.043 166.28C804.779 166.28 805.376 166.88 805.376 167.613V175.613C805.376 176.347 804.779 176.947 804.043 176.947Z" fill="#FFF8CF"/>
<path d="M803.811 474.787C803.185 474.68 802.708 474.133 802.708 473.48V465.48C802.708 464.733 803.307 464.147 804.043 464.147C804.779 464.147 805.376 464.733 805.376 465.48V473.48C805.376 474.067 804.992 474.56 804.46 474.747C804.245 474.76 804.029 474.773 803.811 474.787Z" fill="#D2C9A7"/>
<path d="M804.043 451.547C803.307 451.547 802.708 450.96 802.708 450.213V434.96C802.708 434.227 803.307 433.627 804.043 433.627C804.779 433.627 805.376 434.227 805.376 434.96V450.213C805.376 450.96 804.779 451.547 804.043 451.547ZM804.043 421.04C803.307 421.04 802.708 420.44 802.708 419.707V407.347H805.376V419.707C805.376 420.44 804.779 421.04 804.043 421.04ZM802.708 194.96V190.867C802.708 190.133 803.307 189.533 804.043 189.533C804.507 189.533 804.916 189.773 805.155 190.133C804.369 191.747 803.553 193.347 802.708 194.96Z" fill="#D2C9A7"/>
<path d="M804.043 176.947C803.307 176.947 802.708 176.347 802.708 175.613V171.693C803.515 170.053 804.3 168.387 805.048 166.733C805.252 166.973 805.376 167.28 805.376 167.613V175.613C805.376 176.347 804.779 176.947 804.043 176.947Z" fill="#D2C9A7"/>
<path d="M799.843 113.707L799.579 113.68C798.857 113.547 798.389 112.84 798.533 112.12C799.053 109.52 799.521 106.893 799.924 104.293C800.037 103.573 800.72 103.08 801.447 103.187C802.175 103.294 802.672 103.987 802.56 104.707C802.149 107.347 801.675 110.014 801.148 112.64C801.021 113.28 800.465 113.707 799.843 113.707Z" fill="#FFF8CF"/>
<path d="M799.843 113.707L799.579 113.68C798.857 113.547 798.389 112.84 798.533 112.12C798.781 110.88 799.017 109.64 799.24 108.387C800.139 106.694 801.009 104.987 801.836 103.307C802.343 103.56 802.651 104.12 802.56 104.707C802.149 107.347 801.675 110.014 801.148 112.64C801.021 113.28 800.465 113.707 799.843 113.707Z" fill="#D2C9A7"/>
<path d="M803.401 11.28C802.684 11.28 802.092 10.7068 802.069 9.9868C801.988 7.4668 801.864 4.86685 801.691 2.04019C801.645 1.30685 802.204 0.666645 802.94 0.626645C803.692 0.586645 804.307 1.1467 804.352 1.88003C804.528 4.73336 804.652 7.36019 804.735 9.90685C804.757 10.6402 804.18 11.2534 803.444 11.28H803.401Z" fill="#FFF8CF"/>
<path d="M18.2021 475.175C18.0528 475.162 17.9047 475.162 17.7567 475.149C17.214 475.002 16.8099 474.482 16.8099 473.855V465.855C16.8099 465.109 17.3629 464.522 18.044 464.522C18.7262 464.522 19.2781 465.109 19.2781 465.855V473.855C19.2781 474.522 18.8095 475.082 18.2021 475.175Z" fill="#D2C9A7"/>
<path d="M18.044 177.322C17.3629 177.322 16.8099 176.722 16.8099 175.989V167.989C16.8099 167.722 16.8857 167.469 17.0158 167.255C17.7428 168.882 18.4924 170.495 19.2781 172.135V175.989C19.2781 176.722 18.7262 177.322 18.044 177.322Z" fill="#D2C9A7"/>
<path d="M36.8571 209.162C36.1759 209.162 35.623 208.576 35.623 207.829V199.829C35.623 199.709 35.6391 199.589 35.6675 199.482C36.4585 200.562 37.2668 201.642 38.0912 202.722V207.829C38.0912 208.576 37.5383 209.162 36.8571 209.162Z" fill="#D2C9A7"/>
<path d="M36.8571 452.002C36.1759 452.002 35.623 451.415 35.623 450.669V435.495C35.623 434.762 36.1759 434.162 36.8571 434.162C37.5383 434.162 38.0912 434.762 38.0912 435.495V450.669C38.0912 451.415 37.5383 452.002 36.8571 452.002ZM36.8571 421.655C36.1759 421.655 35.623 421.055 35.623 420.322V405.135C35.623 404.402 36.1759 403.802 36.8571 403.802C37.5383 403.802 38.0912 404.402 38.0912 405.135V420.322C38.0912 421.055 37.5383 421.655 36.8571 421.655ZM36.8571 391.295C36.1759 391.295 35.623 390.695 35.623 389.962V374.789C35.623 374.055 36.1759 373.455 36.8571 373.455C37.5383 373.455 38.0912 374.055 38.0912 374.789V389.962C38.0912 390.695 37.5383 391.295 36.8571 391.295ZM36.8571 360.935C36.1759 360.935 35.623 360.349 35.623 359.602V344.429C35.623 343.696 36.1759 343.096 36.8571 343.096C37.5383 343.096 38.0912 343.696 38.0912 344.429V359.602C38.0912 360.349 37.5383 360.935 36.8571 360.935ZM36.8571 330.589C36.1759 330.589 35.623 329.989 35.623 329.255V314.082C35.623 313.336 36.1759 312.749 36.8571 312.749C37.5383 312.749 38.0912 313.336 38.0912 314.082V329.255C38.0912 329.989 37.5383 330.589 36.8571 330.589ZM36.8571 300.229C36.1759 300.229 35.623 299.629 35.623 298.896V283.722C35.623 282.989 36.1759 282.389 36.8571 282.389C37.5383 282.389 38.0912 282.989 38.0912 283.722V298.896C38.0912 299.629 37.5383 300.229 36.8571 300.229ZM36.8571 269.882C36.1759 269.882 35.623 269.282 35.623 268.549V253.362C35.623 252.629 36.1759 252.029 36.8571 252.029C37.5383 252.029 38.0912 252.629 38.0912 253.362V268.549C38.0912 269.282 37.5383 269.882 36.8571 269.882ZM36.8571 239.522C36.1759 239.522 35.623 238.922 35.623 238.189V223.016C35.623 222.282 36.1759 221.682 36.8571 221.682C37.5383 221.682 38.0912 222.282 38.0912 223.016V238.189C38.0912 238.922 37.5383 239.522 36.8571 239.522Z" fill="#D2C9A7"/>
<path d="M36.8571 475.189C36.1759 475.189 35.623 474.589 35.623 473.855V465.855C35.623 465.109 36.1759 464.522 36.8571 464.522C37.5383 464.522 38.0912 465.109 38.0912 465.855V473.855C38.0912 474.589 37.5383 475.189 36.8571 475.189Z" fill="#D2C9A7"/>
<path d="M786.536 209.162C785.853 209.162 785.3 208.576 785.3 207.829V202.909C786.118 201.749 786.927 200.589 787.71 199.429C787.749 199.549 787.77 199.696 787.77 199.829V207.829C787.77 208.576 787.217 209.162 786.536 209.162Z" fill="#D2C9A7"/>
<path d="M786.536 452.002C785.853 452.002 785.3 451.415 785.3 450.669V435.495C785.3 434.762 785.853 434.162 786.536 434.162C787.217 434.162 787.77 434.762 787.77 435.495V450.669C787.77 451.415 787.217 452.002 786.536 452.002ZM786.536 421.655C785.853 421.655 785.3 421.055 785.3 420.322V407.682L787.77 407.695V420.322C787.77 421.055 787.217 421.655 786.536 421.655ZM785.3 224.482V223.016C785.3 222.282 785.853 221.682 786.536 221.682C786.778 221.682 787.003 221.749 787.195 221.882C786.573 222.749 785.943 223.616 785.3 224.482Z" fill="#D2C9A7"/>
<path d="M786.536 475.189C785.853 475.189 785.3 474.589 785.3 473.855V465.855C785.3 465.109 785.853 464.522 786.536 464.522C787.217 464.522 787.77 465.109 787.77 465.855V473.855C787.77 474.589 787.217 475.189 786.536 475.189Z" fill="#D2C9A7"/>
<path d="M16.7156 2.33527H805.592C812.666 2.33527 818.52 9.62862 818.955 19.002C821.991 84.5486 872.304 327.095 413.554 321.122C-57.7916 314.975 1.43368 85.4554 3.33972 19.3754C3.61442 9.84203 9.53419 2.33527 16.7156 2.33527Z" fill="#A385D3"/>
<path d="M26.6562 135.869C26.1502 135.869 25.6766 135.522 25.4948 134.989C23.8172 129.962 22.3258 124.789 21.0617 119.602C20.8892 118.895 21.2821 118.162 21.9415 117.975C22.5982 117.789 23.2759 118.215 23.4489 118.922C24.6941 124.042 26.1638 129.136 27.8162 134.082C28.047 134.776 27.7163 135.535 27.0745 135.789C26.9363 135.842 26.7944 135.869 26.6562 135.869ZM791.959 144.709C791.806 144.709 791.651 144.682 791.501 144.616C790.868 144.349 790.56 143.562 790.813 142.882C792.616 138.002 794.232 132.949 795.618 127.896C795.813 127.189 796.502 126.789 797.152 126.989C797.806 127.202 798.179 127.949 797.985 128.655C796.577 133.789 794.936 138.909 793.106 143.869C792.912 144.389 792.449 144.709 791.959 144.709ZM39.1661 164.802C38.7415 164.802 38.3281 164.562 38.0986 164.135C35.6057 159.509 33.2795 154.709 31.189 149.869C30.9002 149.202 31.1668 148.402 31.785 148.096C32.4021 147.789 33.1363 148.069 33.4251 148.735C35.4848 153.509 37.7753 158.229 40.2323 162.789C40.5754 163.429 40.3755 164.242 39.7868 164.616C39.5906 164.736 39.3783 164.802 39.1661 164.802ZM778.531 173.149C778.305 173.149 778.078 173.082 777.874 172.949C777.297 172.562 777.124 171.735 777.488 171.109C780.1 166.642 782.543 162.002 784.751 157.322C785.061 156.669 785.804 156.416 786.411 156.749C787.018 157.082 787.259 157.882 786.949 158.535C784.708 163.282 782.227 167.989 779.577 172.535C779.341 172.935 778.941 173.149 778.531 173.149ZM56.1865 190.896C55.8348 190.896 55.4856 190.722 55.2412 190.416C52.0363 186.296 48.977 182.002 46.1497 177.682C45.7561 177.069 45.8881 176.242 46.4447 175.816C47.0025 175.389 47.7726 175.535 48.165 176.135C50.9528 180.402 53.9701 184.629 57.1306 188.696C57.5699 189.269 57.502 190.109 56.98 190.575C56.748 190.789 56.4667 190.896 56.1865 190.896ZM760.638 198.562C760.343 198.562 760.047 198.442 759.811 198.216C759.305 197.722 759.266 196.869 759.724 196.322C763.026 192.389 766.184 188.282 769.11 184.135C769.524 183.549 770.297 183.429 770.84 183.882C771.382 184.322 771.487 185.162 771.074 185.749C768.106 189.962 764.903 194.122 761.554 198.122C761.311 198.402 760.975 198.562 760.638 198.562ZM76.9006 213.655C76.613 213.655 76.323 213.535 76.0886 213.322C72.3258 209.762 68.6828 206.056 65.2607 202.296C64.7819 201.776 64.7881 200.936 65.2743 200.416C65.7593 199.896 66.5405 199.909 67.0193 200.429C70.3982 204.136 73.9968 207.802 77.7138 211.309C78.226 211.802 78.2778 212.642 77.8298 213.189C77.5855 213.495 77.2436 213.655 76.9006 213.655ZM739.179 220.496C738.821 220.496 738.466 220.335 738.222 220.002C737.792 219.442 737.871 218.602 738.399 218.135C742.232 214.762 745.948 211.229 749.448 207.669C749.943 207.162 750.722 207.189 751.193 207.722C751.66 208.255 751.638 209.095 751.142 209.602C747.6 213.215 743.838 216.789 739.959 220.202C739.729 220.402 739.454 220.496 739.179 220.496ZM100.396 233.016C100.162 233.016 99.9236 232.935 99.7138 232.789C95.5525 229.789 91.48 226.655 87.6099 223.469C87.0669 223.029 86.9608 222.189 87.3742 221.602C87.7864 221.015 88.5626 220.909 89.1032 221.349C92.9338 224.496 96.963 227.602 101.082 230.562C101.65 230.976 101.803 231.802 101.424 232.416C101.187 232.802 100.796 233.016 100.396 233.016ZM715.093 239.002C714.68 239.002 714.278 238.775 714.044 238.375C713.684 237.749 713.862 236.922 714.44 236.535C718.654 233.709 722.777 230.749 726.696 227.749C727.251 227.322 728.022 227.455 728.415 228.055C728.81 228.655 728.679 229.495 728.124 229.922C724.164 232.949 719.999 235.949 715.744 238.802C715.541 238.935 715.315 239.002 715.093 239.002ZM125.873 249.202C125.681 249.202 125.488 249.162 125.306 249.055C120.859 246.562 116.485 243.949 112.306 241.296C111.719 240.922 111.521 240.109 111.867 239.469C112.213 238.842 112.968 238.629 113.556 239.002C117.698 241.629 122.035 244.216 126.443 246.696C127.049 247.029 127.284 247.829 126.968 248.482C126.75 248.949 126.319 249.202 125.873 249.202ZM689.171 254.362C688.712 254.362 688.272 254.082 688.06 253.602C687.762 252.949 688.02 252.149 688.633 251.829C693.103 249.496 697.508 247.042 701.727 244.549C702.326 244.202 703.075 244.429 703.402 245.082C703.729 245.722 703.509 246.536 702.912 246.882C698.657 249.402 694.214 251.869 689.707 254.229C689.534 254.322 689.352 254.362 689.171 254.362ZM152.719 262.602C152.563 262.602 152.404 262.562 152.251 262.496C147.625 260.456 143.045 258.295 138.64 256.109C138.021 255.802 137.751 255.002 138.036 254.335C138.321 253.669 139.053 253.376 139.672 253.682C144.046 255.856 148.592 257.989 153.187 260.029C153.817 260.309 154.12 261.082 153.862 261.762C153.665 262.282 153.205 262.602 152.719 262.602ZM661.999 266.962C661.502 266.962 661.034 266.642 660.847 266.109C660.604 265.415 660.925 264.655 661.561 264.389C666.202 262.482 670.798 260.469 675.228 258.429C675.853 258.136 676.579 258.455 676.847 259.122C677.116 259.802 676.826 260.589 676.2 260.869C671.74 262.935 667.11 264.962 662.439 266.882C662.294 266.936 662.146 266.962 661.999 266.962ZM180.498 273.562C180.372 273.562 180.244 273.536 180.117 273.496C175.359 271.829 170.639 270.069 166.09 268.282C165.45 268.029 165.12 267.256 165.353 266.562C165.587 265.869 166.294 265.522 166.935 265.775C171.457 267.549 176.149 269.296 180.879 270.962C181.527 271.189 181.883 271.936 181.672 272.629C181.503 273.202 181.019 273.562 180.498 273.562ZM633.983 277.216C633.453 277.216 632.963 276.842 632.801 276.269C632.606 275.562 632.976 274.815 633.629 274.602C638.391 273.055 643.12 271.429 647.682 269.762C648.33 269.536 649.029 269.909 649.246 270.602C649.465 271.295 649.118 272.056 648.473 272.296C643.884 273.976 639.128 275.602 634.339 277.162C634.22 277.202 634.101 277.216 633.983 277.216ZM208.914 282.442L208.607 282.402C203.778 281.055 198.965 279.642 194.299 278.189C193.643 277.989 193.267 277.242 193.456 276.535C193.645 275.829 194.328 275.416 194.984 275.629C199.625 277.069 204.416 278.482 209.219 279.816C209.88 280.002 210.278 280.722 210.109 281.442C209.965 282.042 209.464 282.442 208.914 282.442ZM605.4 285.455C604.84 285.455 604.333 285.042 604.199 284.429C604.043 283.709 604.454 282.989 605.117 282.829C609.942 281.602 614.759 280.296 619.432 278.949C620.094 278.749 620.768 279.176 620.943 279.896C621.118 280.602 620.727 281.335 620.068 281.522C615.371 282.869 610.532 284.189 605.683 285.416L605.4 285.455ZM237.758 289.535L237.514 289.522C232.635 288.455 227.758 287.336 223.017 286.162C222.352 286.002 221.936 285.282 222.087 284.562C222.238 283.856 222.902 283.402 223.564 283.562C228.284 284.722 233.141 285.842 238 286.896C238.668 287.042 239.102 287.749 238.968 288.469C238.849 289.109 238.334 289.535 237.758 289.535ZM576.434 291.975C575.849 291.975 575.331 291.522 575.221 290.882C575.099 290.162 575.543 289.455 576.214 289.335C581.083 288.375 585.959 287.335 590.707 286.269C591.371 286.122 592.027 286.589 592.165 287.309C592.303 288.029 591.875 288.736 591.209 288.882C586.442 289.962 581.546 290.989 576.658 291.949L576.434 291.975ZM266.894 295.109L266.705 295.096C261.777 294.269 256.857 293.402 252.081 292.482C251.41 292.362 250.962 291.669 251.08 290.935C251.198 290.215 251.844 289.735 252.51 289.855C257.269 290.762 262.171 291.642 267.08 292.455C267.754 292.575 268.215 293.255 268.112 293.975C268.018 294.642 267.492 295.109 266.894 295.109ZM547.215 297.016C546.608 297.016 546.08 296.535 545.993 295.869C545.9 295.135 546.372 294.469 547.047 294.362C551.975 293.629 556.89 292.842 561.658 292.016C562.334 291.909 562.963 292.402 563.071 293.122C563.178 293.855 562.719 294.535 562.046 294.655C557.263 295.482 552.33 296.269 547.385 297.002L547.215 297.016ZM296.221 299.349H296.081C291.14 298.736 286.191 298.069 281.373 297.375C280.698 297.282 280.223 296.602 280.313 295.882C280.404 295.149 281.031 294.642 281.7 294.735C286.503 295.429 291.436 296.082 296.362 296.696C297.038 296.776 297.525 297.442 297.447 298.175C297.375 298.855 296.841 299.349 296.221 299.349ZM517.828 300.789C517.201 300.789 516.664 300.269 516.601 299.589C516.533 298.855 517.028 298.202 517.706 298.122C522.659 297.589 527.601 297.002 532.394 296.389C533.069 296.309 533.683 296.829 533.765 297.562C533.845 298.296 533.361 298.962 532.684 299.042C527.877 299.655 522.92 300.242 517.953 300.775L517.828 300.789ZM325.678 302.429H325.579C320.629 302.002 315.663 301.522 310.818 301.029C310.139 300.949 309.643 300.296 309.708 299.562C309.774 298.829 310.378 298.296 311.055 298.362C315.888 298.869 320.84 299.349 325.775 299.775C326.455 299.829 326.961 300.469 326.907 301.202C326.855 301.909 326.316 302.429 325.678 302.429ZM488.336 303.442C487.69 303.442 487.149 302.895 487.104 302.189C487.06 301.455 487.574 300.815 488.254 300.775C493.193 300.415 498.152 300.015 502.991 299.575C503.657 299.509 504.267 300.069 504.323 300.802C504.379 301.535 503.874 302.175 503.194 302.242C498.343 302.669 493.372 303.069 488.418 303.429L488.336 303.442ZM355.212 304.496H355.149C350.185 304.229 345.208 303.922 340.356 303.589C339.676 303.535 339.16 302.896 339.205 302.162C339.248 301.429 339.829 300.869 340.515 300.922C345.355 301.255 350.32 301.562 355.272 301.829C355.953 301.869 356.477 302.496 356.443 303.229C356.41 303.936 355.865 304.496 355.212 304.496ZM458.78 305.109C458.118 305.109 457.571 304.536 457.547 303.816C457.521 303.082 458.051 302.469 458.733 302.442C463.674 302.229 468.642 301.989 473.5 301.722C474.178 301.669 474.761 302.242 474.797 302.989C474.832 303.722 474.309 304.349 473.628 304.389C468.76 304.655 463.78 304.895 458.826 305.109H458.78ZM384.788 305.655H384.759C379.811 305.535 374.829 305.375 369.95 305.175C369.269 305.149 368.737 304.535 368.761 303.802C368.787 303.069 369.369 302.509 370.039 302.522C374.908 302.709 379.88 302.869 384.816 302.989C385.497 303.002 386.037 303.616 386.021 304.349C386.006 305.082 385.457 305.655 384.788 305.655ZM429.188 305.909C428.512 305.909 427.962 305.322 427.953 304.589C427.945 303.855 428.491 303.255 429.173 303.242C434.11 303.175 439.084 303.069 443.956 302.935C444.635 302.895 445.203 303.509 445.221 304.242C445.238 304.975 444.7 305.589 444.017 305.602C439.135 305.735 434.151 305.842 429.202 305.909H429.188ZM414.383 306.016H413.554C408.836 306.016 404.176 305.989 399.571 305.922C398.888 305.922 398.343 305.322 398.35 304.575C398.358 303.842 398.908 303.255 399.584 303.255H399.598C404.195 303.322 408.846 303.335 413.554 303.335H414.383C415.065 303.335 415.618 303.935 415.618 304.669C415.618 305.415 415.065 306.016 414.383 306.016Z" fill="#FFF8CF"/>
<path d="M18.9981 104.189C18.4061 104.189 17.8826 103.722 17.7818 103.082C17.374 100.442 17.0134 97.7621 16.7092 95.1088C16.6253 94.3754 17.106 93.7088 17.7818 93.6288C18.4591 93.5222 19.0747 94.0554 19.1585 94.7887C19.4579 97.3887 19.8147 100.042 20.2162 102.642C20.329 103.362 19.8744 104.055 19.2029 104.175L18.9981 104.189Z" fill="#FFF8CF"/>
<path d="M771.189 155.855C770.985 155.855 770.779 155.802 770.588 155.695C769.993 155.335 769.781 154.522 770.114 153.882C771.306 151.576 772.457 149.215 773.536 146.869C773.838 146.202 774.579 145.935 775.189 146.269C775.8 146.589 776.05 147.389 775.747 148.055C774.651 150.442 773.48 152.842 772.267 155.175C772.041 155.615 771.621 155.855 771.189 155.855Z" fill="#FFF8CF"/>
<path d="M66.1567 177.816C65.8013 177.816 65.4471 177.655 65.204 177.335C61.9757 173.095 58.9225 168.682 56.1286 164.216C55.746 163.602 55.8941 162.776 56.4581 162.362C57.0245 161.949 57.7897 162.109 58.1722 162.722C60.9242 167.122 63.9317 171.455 67.1094 175.642C67.5426 176.202 67.4673 177.055 66.9404 177.522C66.7108 177.722 66.4332 177.816 66.1567 177.816ZM753.989 182.482C753.707 182.482 753.421 182.389 753.191 182.162C752.671 181.696 752.608 180.856 753.05 180.282C756.298 176.162 759.368 171.869 762.178 167.535C762.568 166.935 763.337 166.789 763.898 167.202C764.457 167.629 764.591 168.455 764.201 169.055C761.348 173.469 758.228 177.829 754.93 182.016C754.685 182.322 754.338 182.482 753.989 182.482ZM87.1707 201.029C86.8843 201.029 86.5956 200.922 86.3623 200.709C82.5132 197.095 78.8011 193.322 75.3309 189.496C74.8545 188.976 74.8619 188.136 75.3482 187.616C75.8356 187.096 76.6168 187.109 77.0932 187.629C80.5165 191.402 84.1805 195.122 87.9802 198.696C88.4948 199.176 88.5504 200.015 88.1036 200.575C87.8593 200.869 87.5162 201.029 87.1707 201.029ZM732.59 205.282C732.237 205.282 731.887 205.122 731.642 204.802C731.206 204.242 731.276 203.402 731.799 202.922C735.663 199.442 739.389 195.789 742.873 192.096C743.359 191.576 744.14 191.589 744.618 192.109C745.095 192.629 745.089 193.482 744.603 193.989C741.072 197.749 737.297 201.442 733.381 204.975C733.15 205.189 732.869 205.282 732.59 205.282ZM111.24 220.482C111.011 220.482 110.779 220.415 110.57 220.269C106.292 217.282 102.114 214.136 98.1527 210.949C97.6073 210.509 97.495 209.669 97.9022 209.082C98.3095 208.496 99.0808 208.376 99.6287 208.816C103.547 211.962 107.679 215.069 111.912 218.029C112.485 218.429 112.648 219.256 112.277 219.882C112.041 220.269 111.645 220.482 111.24 220.482ZM708.186 224.255C707.774 224.255 707.371 224.029 707.137 223.616C706.777 223.002 706.955 222.175 707.533 221.789C711.822 218.909 716.008 215.882 719.975 212.816C720.531 212.389 721.301 212.522 721.698 213.122C722.096 213.722 721.968 214.549 721.414 214.975C717.402 218.095 713.171 221.135 708.837 224.055C708.634 224.189 708.408 224.255 708.186 224.255ZM137.4 236.496C137.215 236.496 137.029 236.456 136.852 236.362C132.278 233.909 127.787 231.335 123.502 228.722C122.908 228.362 122.7 227.549 123.036 226.909C123.371 226.269 124.124 226.042 124.716 226.402C128.963 228.989 133.414 231.549 137.949 233.975C138.56 234.295 138.808 235.096 138.506 235.762C138.29 236.229 137.853 236.496 137.4 236.496ZM681.762 239.762C681.301 239.762 680.857 239.482 680.646 239.002C680.355 238.335 680.617 237.536 681.233 237.229C685.802 234.882 690.296 232.415 694.588 229.909C695.188 229.549 695.938 229.789 696.261 230.442C696.586 231.082 696.364 231.895 695.765 232.255C691.434 234.789 686.901 237.269 682.29 239.629C682.12 239.722 681.94 239.762 681.762 239.762ZM164.951 249.535C164.803 249.535 164.652 249.509 164.507 249.455C159.747 247.469 155.05 245.389 150.542 243.255C149.918 242.962 149.632 242.176 149.905 241.496C150.178 240.816 150.907 240.522 151.53 240.816C156.005 242.922 160.67 244.989 165.394 246.962C166.031 247.229 166.347 248.002 166.101 248.682C165.912 249.216 165.445 249.535 164.951 249.535ZM654.013 252.309C653.51 252.309 653.039 251.976 652.855 251.429C652.619 250.736 652.948 249.975 653.587 249.722C658.344 247.829 663.041 245.842 667.544 243.802C668.174 243.522 668.897 243.842 669.158 244.522C669.421 245.202 669.124 245.989 668.494 246.269C663.959 248.309 659.23 250.322 654.44 252.216C654.299 252.282 654.154 252.309 654.013 252.309ZM193.416 260.055C193.298 260.055 193.178 260.029 193.06 259.989C188.193 258.402 183.359 256.736 178.693 255.016C178.048 254.776 177.704 254.015 177.923 253.322C178.143 252.629 178.843 252.256 179.49 252.496C184.129 254.202 188.934 255.869 193.772 257.442C194.425 257.655 194.794 258.402 194.597 259.109C194.437 259.682 193.947 260.055 193.416 260.055ZM625.402 262.349C624.865 262.349 624.371 261.975 624.216 261.389C624.028 260.682 624.408 259.935 625.062 259.735C629.937 258.229 634.765 256.642 639.413 255.016C640.065 254.789 640.757 255.162 640.967 255.869C641.178 256.562 640.823 257.322 640.175 257.549C635.499 259.189 630.644 260.789 625.742 262.296C625.629 262.336 625.514 262.349 625.402 262.349ZM222.485 268.429L222.203 268.402C217.261 267.149 212.339 265.815 207.573 264.442C206.914 264.255 206.521 263.522 206.698 262.816C206.873 262.096 207.55 261.682 208.207 261.869C212.951 263.229 217.849 264.562 222.767 265.802C223.429 265.975 223.841 266.682 223.686 267.402C223.553 268.015 223.045 268.429 222.485 268.429ZM596.228 270.309C595.661 270.309 595.152 269.882 595.023 269.269C594.877 268.549 595.297 267.829 595.963 267.669C600.906 266.495 605.822 265.242 610.57 263.949C611.229 263.762 611.902 264.202 612.069 264.909C612.235 265.629 611.834 266.349 611.174 266.522C606.4 267.829 601.463 269.096 596.496 270.282L596.228 270.309ZM251.953 275.016L251.733 275.002C246.746 274.029 241.765 272.989 236.929 271.909C236.261 271.762 235.833 271.055 235.97 270.335C236.108 269.615 236.759 269.149 237.427 269.296C242.244 270.362 247.205 271.402 252.171 272.375C252.842 272.509 253.288 273.202 253.166 273.922C253.06 274.562 252.539 275.016 251.953 275.016ZM566.688 276.509C566.097 276.509 565.573 276.042 565.472 275.389C565.359 274.669 565.812 273.989 566.483 273.855C571.466 272.949 576.438 271.976 581.261 270.962C581.929 270.829 582.578 271.296 582.707 272.029C582.837 272.749 582.4 273.442 581.731 273.589C576.889 274.602 571.897 275.576 566.894 276.482L566.688 276.509ZM281.68 280.069L281.514 280.055C276.495 279.322 271.477 278.535 266.599 277.709C265.925 277.589 265.465 276.909 265.571 276.189C265.676 275.455 266.316 274.962 266.98 275.069C271.842 275.895 276.844 276.682 281.844 277.416C282.52 277.509 282.993 278.189 282.902 278.922C282.818 279.589 282.289 280.069 281.68 280.069ZM536.909 281.216C536.296 281.216 535.764 280.722 535.686 280.042C535.602 279.309 536.083 278.642 536.758 278.549C541.781 277.882 546.789 277.149 551.646 276.375C552.319 276.269 552.946 276.775 553.045 277.509C553.142 278.229 552.676 278.909 552.002 279.016C547.13 279.789 542.104 280.522 537.064 281.202L536.909 281.216ZM311.577 283.802H311.456C306.409 283.269 301.366 282.696 296.47 282.082C295.793 281.989 295.307 281.335 295.386 280.602C295.464 279.869 296.08 279.349 296.753 279.429C301.634 280.042 306.662 280.615 311.694 281.135C312.373 281.215 312.871 281.869 312.804 282.602C312.742 283.282 312.205 283.802 311.577 283.802ZM506.98 284.629C506.347 284.629 505.808 284.109 505.752 283.416C505.692 282.682 506.196 282.029 506.873 281.962C511.892 281.496 516.923 280.976 521.831 280.416C522.511 280.336 523.116 280.869 523.188 281.589C523.26 282.322 522.768 282.989 522.09 283.055C517.168 283.629 512.12 284.149 507.089 284.629H506.98ZM341.578 286.389H341.499C336.483 286.042 331.426 285.656 326.469 285.229C325.789 285.176 325.282 284.522 325.336 283.789C325.39 283.055 325.979 282.522 326.664 282.575C331.609 282.989 336.653 283.389 341.655 283.735C342.335 283.775 342.853 284.416 342.809 285.149C342.767 285.856 342.224 286.389 341.578 286.389ZM476.958 286.935C476.307 286.935 475.762 286.389 475.726 285.669C475.689 284.935 476.21 284.309 476.891 284.269C481.909 283.975 486.955 283.629 491.891 283.255C492.569 283.202 493.161 283.749 493.209 284.482C493.257 285.216 492.745 285.855 492.065 285.909C487.118 286.282 482.057 286.629 477.027 286.935H476.958ZM371.64 287.989H371.597C366.558 287.789 361.493 287.562 356.542 287.309C355.862 287.269 355.336 286.642 355.37 285.909C355.403 285.175 355.984 284.602 356.663 284.642C361.602 284.895 366.655 285.135 371.682 285.322C372.364 285.349 372.896 285.962 372.873 286.696C372.849 287.416 372.303 287.989 371.64 287.989ZM446.884 288.269C446.218 288.269 445.669 287.695 445.652 286.975C445.632 286.242 446.169 285.629 446.851 285.602C451.879 285.455 456.933 285.269 461.876 285.055C462.577 284.989 463.131 285.589 463.158 286.322C463.187 287.069 462.657 287.682 461.977 287.722C457.024 287.935 451.958 288.122 446.919 288.269H446.884ZM401.732 288.696H401.721C396.703 288.642 391.635 288.562 386.656 288.442C385.975 288.429 385.435 287.816 385.449 287.082C385.464 286.349 386.038 285.762 386.709 285.775C391.679 285.895 396.736 285.976 401.743 286.029C402.425 286.029 402.972 286.629 402.966 287.375C402.96 288.109 402.409 288.696 401.732 288.696ZM416.783 288.749C416.103 288.749 415.551 288.149 415.55 287.416C415.547 286.682 416.099 286.082 416.78 286.082C421.804 286.069 426.864 286.016 431.817 285.949C432.491 285.922 433.06 286.522 433.07 287.255C433.08 287.989 432.536 288.602 431.854 288.616C426.89 288.682 421.82 288.736 416.786 288.749H416.783Z" fill="#FFF8CF"/>
<path d="M49.1164 150.482C48.6771 150.482 48.2513 150.229 48.028 149.789C46.8531 147.429 45.7165 145.002 44.6515 142.589C44.3578 141.935 44.6182 141.136 45.234 140.816C45.8486 140.496 46.5853 140.775 46.879 141.442C47.9268 143.815 49.0448 146.202 50.2012 148.522C50.5245 149.162 50.2999 149.975 49.7014 150.322C49.5138 150.429 49.3139 150.482 49.1164 150.482Z" fill="#FFF8CF"/>
<path d="M1.81409 41.4823C1.90615 32.189 2.73619 25.9754 3.02793 24.0688C3.0341 24.5088 3.04236 24.9355 3.05248 25.3888C2.75359 30.1621 2.29032 35.5623 1.81409 41.4823Z" fill="#D2CECE"/>
<path d="M412.125 282.842C286.65 282.842 199.267 263.135 138.516 234.602C138.402 234.335 138.208 234.109 137.949 233.975C133.414 231.549 128.963 228.989 124.716 226.402C124.525 226.282 124.316 226.229 124.11 226.229C123.698 226.229 123.297 226.455 123.064 226.855C119.127 224.749 115.309 222.602 111.619 220.416C111.881 220.336 112.116 220.149 112.277 219.882C112.648 219.256 112.485 218.429 111.911 218.029C107.679 215.069 103.547 211.962 99.6286 208.816C99.4065 208.629 99.1486 208.549 98.8919 208.549C98.5155 208.549 98.144 208.736 97.9021 209.082C97.4949 209.669 97.6072 210.509 98.1527 210.949C100.763 213.056 103.467 215.136 106.232 217.162C66.2603 192.389 41.3578 163.456 25.9446 135.616C26.1502 135.776 26.3995 135.869 26.6562 135.869C26.7944 135.869 26.9363 135.842 27.0745 135.789C27.7162 135.535 28.047 134.776 27.8162 134.082C26.1638 129.136 24.6941 124.042 23.4489 118.922C23.3033 118.322 22.7995 117.935 22.252 117.935C22.1493 117.935 22.0451 117.949 21.9415 117.976C21.2821 118.162 20.8892 118.895 21.0617 119.602C22.2871 124.629 23.7261 129.655 25.3415 134.522C4.96373 97.1488 1.61197 61.8823 1.81399 41.4823C2.29022 35.5623 2.75349 30.1621 3.05239 25.3888C3.39275 40.4821 5.79193 61.5487 14.0979 84.9354C15.1169 87.8287 16.2237 90.7621 17.4318 93.7221C16.9483 93.9621 16.6407 94.5088 16.7092 95.1088C17.0134 97.7622 17.374 100.442 17.7818 103.082C17.8826 103.722 18.4061 104.189 18.9981 104.189L19.2029 104.176C19.8744 104.056 20.329 103.362 20.2162 102.642C20.033 101.456 19.8595 100.255 19.6961 99.0555C25.7507 112.749 33.9348 126.935 44.9625 141.002C44.5479 141.389 44.406 142.042 44.6515 142.589C45.7166 145.002 46.8531 147.429 48.028 149.789C48.2514 150.229 48.6771 150.482 49.1164 150.482C49.3139 150.482 49.5138 150.429 49.7014 150.322C50.2999 149.975 50.5245 149.162 50.2012 148.522C49.7717 147.655 49.3485 146.789 48.9313 145.909C98.903 205.829 202.165 261.735 413.554 261.735C618.739 261.735 721.028 209.056 771.485 151.162C771.035 152.082 770.578 152.989 770.114 153.882C769.78 154.522 769.993 155.336 770.587 155.696C770.779 155.802 770.985 155.855 771.188 155.855C771.62 155.855 772.041 155.616 772.267 155.176C773.48 152.842 774.651 150.442 775.747 148.055C775.999 147.495 775.868 146.855 775.465 146.469C785.758 133.922 793.694 121.202 799.801 108.762C799.595 110.016 799.376 111.256 799.147 112.496C799.013 113.216 799.446 113.922 800.114 114.055L800.358 114.082C800.935 114.082 801.449 113.656 801.567 113.016C802.054 110.389 802.493 107.722 802.874 105.082C802.957 104.496 802.672 103.936 802.203 103.682C811.307 83.6689 815.765 64.6287 817.771 48.5354C817.549 69.2021 813.649 100.362 796.654 133.269C797.119 131.735 797.563 130.189 797.985 128.655C798.179 127.949 797.806 127.202 797.152 126.989C797.036 126.949 796.919 126.935 796.803 126.935C796.271 126.935 795.778 127.309 795.618 127.896C794.232 132.949 792.616 138.002 790.813 142.882C790.701 143.189 790.699 143.509 790.789 143.802C776.402 167.815 754.641 192.256 721.926 213.816C721.914 213.576 721.839 213.335 721.698 213.122C721.456 212.762 721.077 212.562 720.694 212.562C720.444 212.562 720.194 212.642 719.975 212.816C716.008 215.882 711.822 218.909 707.533 221.789C707.127 222.055 706.919 222.549 706.955 223.029C646.588 257.669 553.922 282.842 412.125 282.842ZM743.739 191.709C743.427 191.709 743.113 191.842 742.872 192.096C739.389 195.789 735.663 199.442 731.799 202.922C731.276 203.402 731.205 204.242 731.642 204.802C731.887 205.122 732.237 205.282 732.59 205.282C732.869 205.282 733.15 205.189 733.381 204.976C737.297 201.442 741.072 197.749 744.603 193.989C745.089 193.482 745.095 192.629 744.617 192.109C744.376 191.842 744.057 191.709 743.739 191.709ZM76.2132 187.229C75.9009 187.229 75.5887 187.362 75.3481 187.616C74.8619 188.136 74.8544 188.976 75.3308 189.496C78.801 193.322 82.5132 197.096 86.3623 200.709C86.5955 200.922 86.8843 201.029 87.1706 201.029C87.5161 201.029 87.8592 200.869 88.1035 200.576C88.5503 200.016 88.4947 199.176 87.9801 198.696C84.1804 195.122 80.5164 191.402 77.0931 187.629C76.8512 187.362 76.5328 187.229 76.2132 187.229ZM763.19 166.962C762.802 166.962 762.419 167.162 762.178 167.535C759.368 171.869 756.298 176.162 753.05 180.282C752.608 180.856 752.671 181.696 753.191 182.162C753.421 182.389 753.706 182.482 753.989 182.482C754.338 182.482 754.685 182.322 754.929 182.016C758.228 177.829 761.348 173.469 764.201 169.055C764.591 168.455 764.457 167.629 763.898 167.202C763.682 167.042 763.435 166.962 763.19 166.962ZM57.1503 162.135C56.9121 162.135 56.6715 162.216 56.458 162.362C55.894 162.776 55.7459 163.602 56.1285 164.216C58.9225 168.682 61.9756 173.095 65.2039 177.335C65.447 177.655 65.8012 177.816 66.1566 177.816C66.4331 177.816 66.7107 177.722 66.9403 177.522C67.4672 177.055 67.5425 176.202 67.1094 175.642C63.9316 171.456 60.9241 167.122 58.1721 162.722C57.9327 162.335 57.5452 162.135 57.1503 162.135Z" fill="#886DAB"/>
<path d="M790.789 143.802C790.699 143.509 790.701 143.189 790.813 142.882C792.616 138.002 794.232 132.949 795.618 127.895C795.778 127.309 796.271 126.935 796.803 126.935C796.919 126.935 797.036 126.949 797.152 126.989C797.806 127.202 798.179 127.949 797.985 128.655C797.563 130.189 797.119 131.735 796.654 133.269C794.852 136.762 792.897 140.282 790.789 143.802ZM26.6562 135.869C26.3995 135.869 26.1502 135.776 25.9446 135.616C25.7416 135.256 25.5406 134.895 25.3415 134.522C23.7261 129.655 22.2872 124.629 21.0617 119.602C20.8892 118.895 21.2821 118.162 21.9415 117.975C22.0452 117.949 22.1493 117.935 22.252 117.935C22.7996 117.935 23.3033 118.322 23.4489 118.922C24.6941 124.042 26.1638 129.136 27.8162 134.082C28.047 134.776 27.7163 135.535 27.0745 135.789C26.9363 135.842 26.7944 135.869 26.6562 135.869Z" fill="#D2C9A7"/>
<path d="M18.9981 104.189C18.4061 104.189 17.8826 103.722 17.7818 103.082C17.374 100.442 17.0134 97.7621 16.7092 95.1088C16.6407 94.5088 16.9483 93.9621 17.4318 93.7221C18.1501 95.4954 18.9069 97.2821 19.6961 99.0554C19.8595 100.255 20.033 101.455 20.2162 102.642C20.329 103.362 19.8744 104.055 19.2029 104.175L18.9981 104.189Z" fill="#D2C9A7"/>
<path d="M771.189 155.855C770.985 155.855 770.779 155.802 770.588 155.695C769.993 155.335 769.781 154.522 770.114 153.882C770.578 152.989 771.036 152.082 771.485 151.162C772.851 149.602 774.174 148.042 775.465 146.469C775.868 146.855 775.999 147.495 775.747 148.055C774.651 150.442 773.48 152.842 772.267 155.175C772.041 155.615 771.621 155.855 771.189 155.855Z" fill="#D2C9A7"/>
<path d="M138.516 234.602C133.157 232.082 128.016 229.495 123.064 226.855C123.297 226.455 123.698 226.229 124.11 226.229C124.317 226.229 124.525 226.282 124.716 226.402C128.963 228.989 133.414 231.549 137.949 233.975C138.209 234.109 138.402 234.335 138.516 234.602ZM706.955 223.029C706.919 222.549 707.127 222.055 707.533 221.789C711.822 218.909 716.008 215.882 719.975 212.816C720.194 212.642 720.444 212.562 720.694 212.562C721.077 212.562 721.456 212.762 721.698 213.122C721.839 213.335 721.914 213.576 721.926 213.816C717.168 216.949 712.188 220.016 706.955 223.029ZM111.619 220.416C109.796 219.349 107.995 218.256 106.232 217.162C103.467 215.136 100.763 213.056 98.1527 210.949C97.6073 210.509 97.495 209.669 97.9022 209.082C98.1441 208.736 98.5156 208.549 98.892 208.549C99.1486 208.549 99.4066 208.629 99.6287 208.816C103.547 211.962 107.679 215.069 111.912 218.029C112.485 218.429 112.648 219.256 112.277 219.882C112.116 220.149 111.881 220.336 111.619 220.416ZM732.59 205.282C732.237 205.282 731.887 205.122 731.642 204.802C731.206 204.242 731.276 203.402 731.799 202.922C735.663 199.442 739.389 195.789 742.873 192.096C743.113 191.842 743.427 191.709 743.739 191.709C744.057 191.709 744.376 191.842 744.618 192.109C745.095 192.629 745.089 193.482 744.603 193.989C741.072 197.749 737.297 201.442 733.381 204.975C733.15 205.189 732.869 205.282 732.59 205.282ZM87.1707 201.029C86.8843 201.029 86.5956 200.922 86.3623 200.709C82.5132 197.095 78.8011 193.322 75.3309 189.496C74.8545 188.976 74.8619 188.136 75.3482 187.616C75.5888 187.362 75.901 187.229 76.2133 187.229C76.5329 187.229 76.8513 187.362 77.0932 187.629C80.5165 191.402 84.1805 195.122 87.9802 198.696C88.4948 199.176 88.5504 200.015 88.1036 200.575C87.8593 200.869 87.5162 201.029 87.1707 201.029ZM753.989 182.482C753.707 182.482 753.421 182.389 753.191 182.162C752.671 181.696 752.608 180.856 753.05 180.282C756.298 176.162 759.368 171.869 762.178 167.535C762.419 167.162 762.802 166.962 763.19 166.962C763.435 166.962 763.682 167.042 763.898 167.202C764.457 167.629 764.591 168.455 764.201 169.055C761.348 173.469 758.228 177.829 754.93 182.016C754.685 182.322 754.338 182.482 753.989 182.482ZM66.1567 177.816C65.8013 177.816 65.4471 177.655 65.204 177.335C61.9757 173.095 58.9225 168.682 56.1286 164.216C55.746 163.602 55.8941 162.776 56.4581 162.362C56.6716 162.216 56.9122 162.135 57.1504 162.135C57.5453 162.135 57.9328 162.335 58.1722 162.722C60.9242 167.122 63.9317 171.455 67.1094 175.642C67.5426 176.202 67.4673 177.055 66.9404 177.522C66.7108 177.722 66.4332 177.816 66.1567 177.816Z" fill="#D2C9A7"/>
<path d="M49.1165 150.482C48.6771 150.482 48.2514 150.229 48.028 149.789C46.8532 147.429 45.7166 145.002 44.6516 142.589C44.406 142.042 44.5479 141.389 44.9625 141.002C46.246 142.642 47.5701 144.282 48.9313 145.909C49.3485 146.789 49.7718 147.655 50.2012 148.522C50.5245 149.162 50.2999 149.975 49.7014 150.322C49.5138 150.429 49.3139 150.482 49.1165 150.482Z" fill="#D2C9A7"/>
<path d="M16.7156 2.33536H805.592C812.666 2.33536 818.52 8.26886 818.955 15.8955C821.991 69.2422 805.776 261.735 413.554 261.735C22.0776 261.735 1.43369 69.9754 3.33973 16.202C3.61443 8.44203 9.5342 2.33536 16.7156 2.33536Z" fill="#6E4D99"/>
<path d="M802.312 44.0288L802.153 44.0155C801.478 43.9222 800.999 43.2553 801.087 42.5353C801.707 37.282 802.132 31.882 802.35 26.4686C802.38 25.7353 802.951 25.1754 803.636 25.1887C804.317 25.2287 804.844 25.8554 804.815 26.5887C804.595 32.0687 804.164 37.5486 803.535 42.8686C803.454 43.5353 802.923 44.0288 802.312 44.0288ZM18.9026 44.9754C18.3097 44.9754 17.7856 44.5087 17.6869 43.8554C16.8808 38.5354 16.273 33.0821 15.8801 27.6288C15.8275 26.8955 16.3356 26.2553 17.0148 26.202C17.6912 26.1353 18.2885 26.6821 18.341 27.4288C18.7286 32.8021 19.3279 38.1888 20.1222 43.4288C20.2332 44.1488 19.7766 44.8289 19.1041 44.9489L18.9026 44.9754ZM795.868 75.6822C795.743 75.6822 795.617 75.6555 795.493 75.6155C794.842 75.3889 794.484 74.642 794.692 73.9353C796.184 68.8686 797.481 63.642 798.547 58.402C798.692 57.682 799.348 57.2154 800.017 57.3754C800.682 57.5354 801.104 58.2555 800.957 58.9621C799.875 64.2955 798.558 69.6022 797.043 74.7489C796.876 75.3222 796.39 75.6822 795.868 75.6822ZM26.3538 76.3621C25.8463 76.3621 25.37 76.0153 25.1906 75.4686C23.5145 70.3753 22.0322 65.1221 20.7841 59.8421C20.6149 59.1354 21.0136 58.4021 21.673 58.2288C22.3368 58.0421 23.0059 58.4687 23.1751 59.1887C24.4044 64.3754 25.865 69.5487 27.5164 74.5754C27.7447 75.2687 27.409 76.0289 26.7673 76.2822C26.6303 76.3355 26.4908 76.3621 26.3538 76.3621ZM784.125 105.455C783.928 105.455 783.726 105.402 783.539 105.295C782.939 104.935 782.717 104.136 783.043 103.482C785.401 98.7889 787.578 93.9222 789.512 89.0155C789.779 88.3355 790.504 88.0154 791.131 88.3087C791.758 88.6021 792.049 89.3754 791.783 90.0554C789.819 95.042 787.608 99.9889 785.211 104.749C784.988 105.202 784.565 105.455 784.125 105.455ZM38.9217 105.735C38.4947 105.735 38.0801 105.509 37.8518 105.069C35.3343 100.362 32.9932 95.4954 30.8953 90.5887C30.6102 89.922 30.8792 89.1222 31.4987 88.8155C32.117 88.5089 32.8513 88.802 33.1364 89.4686C35.2034 94.3086 37.5087 99.1086 39.988 103.735C40.3298 104.375 40.1274 105.189 39.5375 105.562C39.3426 105.682 39.1303 105.735 38.9217 105.735ZM56.1285 132.216C55.7768 132.216 55.4263 132.055 55.182 131.735C51.9339 127.562 48.8388 123.216 45.9807 118.816C45.5895 118.216 45.7228 117.389 46.2806 116.962C46.8384 116.535 47.6084 116.682 47.9996 117.282C50.8171 121.616 53.8702 125.895 57.0738 130.029C57.5119 130.589 57.4428 131.429 56.9208 131.909C56.69 132.109 56.4087 132.216 56.1285 132.216ZM767.487 132.335C767.216 132.335 766.941 132.242 766.713 132.042C766.182 131.589 766.099 130.735 766.527 130.175C769.656 125.989 772.624 121.629 775.349 117.229C775.729 116.615 776.494 116.455 777.06 116.869C777.628 117.282 777.778 118.109 777.4 118.722C774.634 123.175 771.622 127.602 768.448 131.842C768.205 132.175 767.848 132.335 767.487 132.335ZM77.1314 155.269C76.8438 155.269 76.555 155.162 76.3206 154.935C72.5036 151.335 68.8087 147.589 65.3373 143.789C64.8597 143.269 64.8646 142.415 65.3496 141.895C65.8346 141.389 66.6158 141.389 67.0946 141.922C70.5216 145.669 74.172 149.375 77.9446 152.935C78.458 153.415 78.5111 154.256 78.0619 154.816C77.8175 155.122 77.4757 155.269 77.1314 155.269ZM746.812 155.722C746.472 155.722 746.134 155.576 745.891 155.282C745.437 154.736 745.481 153.882 745.99 153.402C749.724 149.789 753.328 146.042 756.699 142.229C757.171 141.709 757.951 141.682 758.443 142.189C758.937 142.695 758.954 143.549 758.481 144.082C755.066 147.936 751.416 151.735 747.634 155.389C747.398 155.615 747.104 155.722 746.812 155.722ZM100.982 174.829C100.749 174.829 100.512 174.762 100.302 174.616C96.0683 171.576 91.9329 168.415 88.0135 165.202C87.4705 164.762 87.3631 163.922 87.7753 163.335C88.1875 162.749 88.9613 162.642 89.5043 163.082C93.383 166.256 97.4752 169.389 101.665 172.389C102.234 172.789 102.388 173.629 102.013 174.242C101.775 174.629 101.382 174.829 100.982 174.829ZM723.116 175.509C722.719 175.509 722.328 175.295 722.091 174.909C721.711 174.295 721.861 173.469 722.428 173.055C726.599 170.042 730.669 166.882 734.526 163.669C735.063 163.215 735.841 163.322 736.257 163.909C736.674 164.495 736.573 165.335 736.032 165.775C732.134 169.029 728.019 172.216 723.802 175.282C723.591 175.429 723.352 175.509 723.116 175.509ZM126.851 191.149C126.662 191.149 126.469 191.109 126.289 191.002C121.777 188.495 117.335 185.869 113.089 183.202C112.5 182.829 112.3 182.002 112.643 181.375C112.988 180.735 113.743 180.522 114.332 180.895C118.542 183.549 122.945 186.149 127.418 188.629C128.024 188.975 128.262 189.775 127.951 190.429C127.731 190.895 127.299 191.149 126.851 191.149ZM697.302 191.922C696.855 191.922 696.424 191.655 696.206 191.202C695.891 190.549 696.129 189.735 696.735 189.402C701.204 186.909 705.6 184.295 709.799 181.629C710.387 181.255 711.143 181.469 711.489 182.095C711.834 182.735 711.637 183.549 711.049 183.922C706.811 186.615 702.376 189.255 697.867 191.775C697.687 191.869 697.493 191.922 697.302 191.922ZM154.11 204.602C153.955 204.602 153.799 204.575 153.647 204.509C148.951 202.455 144.302 200.295 139.828 198.095C139.208 197.789 138.934 197.002 139.217 196.322C139.499 195.655 140.232 195.362 140.852 195.669C145.293 197.855 149.91 200.002 154.572 202.042C155.206 202.322 155.51 203.095 155.254 203.775C155.06 204.295 154.597 204.602 154.11 204.602ZM670.049 205.389C669.561 205.389 669.099 205.069 668.905 204.549C668.65 203.869 668.955 203.096 669.587 202.816C674.264 200.776 678.88 198.629 683.308 196.455C683.927 196.149 684.661 196.442 684.943 197.109C685.227 197.775 684.953 198.562 684.334 198.869C679.873 201.069 675.223 203.229 670.512 205.282C670.36 205.349 670.204 205.389 670.049 205.389ZM182.308 215.589C182.184 215.589 182.058 215.562 181.932 215.522C177.115 213.855 172.325 212.109 167.694 210.309C167.054 210.055 166.721 209.295 166.95 208.602C167.181 207.909 167.889 207.549 168.53 207.789C173.132 209.589 177.895 211.335 182.685 212.989C183.333 213.202 183.692 213.962 183.484 214.655C183.317 215.229 182.83 215.589 182.308 215.589ZM641.836 216.322C641.313 216.322 640.826 215.962 640.66 215.389C640.454 214.682 640.813 213.935 641.462 213.722C646.266 212.069 651.031 210.336 655.624 208.549C656.267 208.309 656.973 208.669 657.203 209.362C657.432 210.055 657.099 210.815 656.456 211.069C651.834 212.855 647.041 214.602 642.21 216.255C642.086 216.295 641.959 216.322 641.836 216.322ZM211.146 224.455L210.844 224.416C205.931 223.082 201.045 221.669 196.325 220.216C195.669 220.016 195.29 219.282 195.475 218.562C195.661 217.855 196.345 217.455 197 217.655C201.697 219.095 206.557 220.495 211.446 221.829C212.108 222.002 212.508 222.735 212.342 223.442C212.202 224.055 211.699 224.455 211.146 224.455ZM612.977 225.109C612.423 225.109 611.919 224.695 611.78 224.095C611.616 223.389 612.018 222.656 612.679 222.482C617.575 221.162 622.439 219.776 627.137 218.349C627.796 218.136 628.474 218.562 628.66 219.269C628.845 219.975 628.461 220.709 627.806 220.909C623.083 222.349 618.195 223.749 613.275 225.069L612.977 225.109ZM240.414 231.509L240.174 231.482C235.212 230.429 230.265 229.322 225.467 228.162C224.802 228.002 224.383 227.282 224.531 226.562C224.681 225.855 225.342 225.402 226.005 225.562C230.781 226.709 235.708 227.829 240.651 228.869C241.318 229.015 241.755 229.722 241.623 230.442C241.509 231.069 240.991 231.509 240.414 231.509ZM583.688 232.069C583.108 232.069 582.591 231.629 582.478 230.989C582.348 230.269 582.786 229.562 583.456 229.429C588.4 228.389 593.33 227.295 598.112 226.162C598.781 226.002 599.437 226.455 599.582 227.175C599.729 227.895 599.307 228.602 598.642 228.762C593.84 229.909 588.888 231.002 583.924 232.042L583.688 232.069ZM269.97 237.016L269.785 237.002C264.804 236.202 259.814 235.335 254.953 234.429C254.28 234.295 253.83 233.616 253.946 232.882C254.06 232.162 254.703 231.669 255.371 231.802C260.215 232.695 265.187 233.562 270.15 234.362C270.825 234.469 271.289 235.149 271.188 235.882C271.097 236.549 270.57 237.016 269.97 237.016ZM554.115 237.469C553.513 237.469 552.987 236.989 552.897 236.322C552.798 235.602 553.265 234.922 553.94 234.816C558.904 234.029 563.879 233.189 568.726 232.295C569.395 232.175 570.036 232.669 570.149 233.389C570.263 234.122 569.81 234.802 569.137 234.922C564.273 235.815 559.278 236.669 554.296 237.455L554.115 237.469ZM299.716 241.175H299.581C294.56 240.575 289.541 239.922 284.664 239.242C283.988 239.149 283.51 238.482 283.598 237.749C283.684 237.016 284.295 236.495 284.98 236.602C289.843 237.282 294.846 237.922 299.85 238.522C300.527 238.602 301.016 239.255 300.942 239.989C300.873 240.669 300.338 241.175 299.716 241.175ZM524.355 241.522C523.732 241.522 523.196 241.015 523.13 240.322C523.057 239.602 523.548 238.935 524.225 238.855C529.237 238.282 534.241 237.655 539.101 236.989C539.779 236.895 540.394 237.416 540.48 238.149C540.563 238.882 540.085 239.549 539.41 239.642C534.535 240.295 529.513 240.935 524.487 241.509L524.355 241.522ZM329.587 244.162H329.492C324.471 243.749 319.435 243.295 314.525 242.802C313.847 242.735 313.348 242.082 313.41 241.349C313.473 240.616 314.08 240.082 314.752 240.149C319.649 240.629 324.671 241.095 329.679 241.495C330.359 241.562 330.868 242.202 330.816 242.935C330.767 243.629 330.227 244.162 329.587 244.162ZM494.475 244.402C493.835 244.402 493.294 243.869 493.246 243.162C493.197 242.429 493.708 241.789 494.388 241.735C499.408 241.349 504.432 240.909 509.319 240.442C509.998 240.389 510.597 240.909 510.658 241.642C510.718 242.375 510.217 243.029 509.537 243.095C504.638 243.562 499.602 244.002 494.567 244.402H494.475ZM359.532 246.122H359.474C354.426 245.869 349.38 245.575 344.477 245.255C343.797 245.215 343.278 244.589 343.319 243.855C343.36 243.109 343.962 242.562 344.625 242.602C349.518 242.922 354.552 243.202 359.588 243.455C360.268 243.482 360.795 244.109 360.764 244.842C360.733 245.562 360.188 246.122 359.532 246.122ZM464.524 246.269C463.868 246.269 463.321 245.709 463.293 244.989C463.263 244.255 463.791 243.629 464.472 243.602C469.482 243.362 474.517 243.095 479.437 242.789C480.113 242.762 480.701 243.309 480.74 244.042C480.778 244.789 480.259 245.415 479.579 245.455C474.646 245.762 469.6 246.029 464.579 246.269H464.524ZM389.518 247.162H389.495C384.462 247.055 379.411 246.922 374.481 246.749C373.8 246.722 373.265 246.109 373.287 245.375C373.308 244.642 373.854 244.069 374.561 244.082C379.48 244.256 384.521 244.389 389.541 244.495C390.223 244.509 390.764 245.122 390.752 245.855C390.739 246.589 390.189 247.162 389.518 247.162ZM434.53 247.229C433.859 247.229 433.308 246.642 433.297 245.909C433.286 245.175 433.829 244.575 434.51 244.562C439.534 244.469 444.577 244.335 449.496 244.189C450.162 244.135 450.745 244.749 450.765 245.482C450.785 246.216 450.25 246.829 449.568 246.855C444.638 247.002 439.586 247.135 434.552 247.229H434.53ZM413.554 247.416C410.516 247.416 407.501 247.402 404.508 247.375C403.827 247.375 403.279 246.775 403.284 246.029C403.289 245.295 403.841 244.709 404.518 244.709H404.527C409.481 244.749 414.538 244.749 419.519 244.722H419.523C420.203 244.722 420.755 245.322 420.759 246.055C420.761 246.789 420.211 247.389 419.53 247.389C417.548 247.402 415.556 247.416 413.554 247.416Z" fill="#FFF8CF"/>
<path d="M16.5487 11.6554H16.5419C15.8603 11.6554 15.3108 11.0554 15.3146 10.3221C15.3277 7.72206 15.3826 5.09555 15.4819 2.28222C15.5088 1.54888 16.0975 0.975343 16.7623 1.00201C17.4434 1.02868 17.9752 1.64206 17.9486 2.38873C17.8503 5.16206 17.7958 7.76201 17.7828 10.3353C17.7789 11.0687 17.2269 11.6554 16.5487 11.6554Z" fill="#FFF8CF"/>
<path d="M790.074 11.6554C789.406 11.6554 788.858 11.0822 788.841 10.3489C788.782 7.76222 788.677 5.16222 788.52 2.41555C788.478 1.68222 788.995 1.04201 789.676 1.00201C790.376 0.962011 790.941 1.52206 790.983 2.2554C791.142 5.02873 791.248 7.66889 791.308 10.2822C791.325 11.0289 790.786 11.6287 790.106 11.6554H790.074Z" fill="#FFF8CF"/>
<path d="M788.268 43.3888L788.079 43.3755C787.406 43.2688 786.944 42.5888 787.048 41.8554C787.778 36.7221 788.298 31.4289 788.594 26.1489C788.635 25.4022 789.238 24.8555 789.9 24.8955C790.58 24.9355 791.098 25.5621 791.057 26.3088C790.757 31.6821 790.228 37.0421 789.486 42.2554C789.392 42.9221 788.867 43.3888 788.268 43.3888ZM33.6115 44.3088C33.029 44.3088 32.5095 43.8556 32.3996 43.2156C31.5025 38.0156 30.8163 32.6688 30.3609 27.3221C30.298 26.5888 30.7978 25.9354 31.4766 25.8687C32.1652 25.802 32.7563 26.3487 32.818 27.0687C33.2672 32.3487 33.9422 37.6021 34.8259 42.7221C34.9505 43.4554 34.5087 44.1489 33.8386 44.2822L33.6115 44.3088ZM780.987 74.1888C780.848 74.1888 780.705 74.1621 780.565 74.1088C779.925 73.8555 779.595 73.0954 779.828 72.402C781.483 67.4954 782.932 62.4288 784.134 57.3221C784.302 56.6154 784.973 56.1889 785.635 56.3622C786.295 56.5489 786.695 57.2688 786.526 57.9888C785.303 63.1754 783.829 68.3221 782.147 73.3088C781.965 73.8555 781.492 74.1888 780.987 74.1888ZM41.7601 74.8421C41.269 74.8421 40.805 74.522 40.6137 74.002C38.7959 69.0687 37.1805 63.9622 35.8131 58.8289C35.6255 58.1222 36.0032 57.3888 36.6585 57.1755C37.3162 56.9755 37.9974 57.3889 38.185 58.0955C39.5314 63.1355 41.1197 68.1622 42.9066 73.0156C43.1584 73.7089 42.8486 74.4822 42.2155 74.7489C42.0662 74.8156 41.9119 74.8421 41.7601 74.8421ZM768.196 102.775C767.976 102.775 767.753 102.722 767.552 102.589C766.97 102.202 766.789 101.376 767.146 100.749C769.689 96.2689 772.044 91.6154 774.145 86.9221C774.443 86.2554 775.18 85.9889 775.794 86.2955C776.407 86.6289 776.664 87.4156 776.368 88.0822C774.231 92.8556 771.836 97.5889 769.25 102.149C769.017 102.549 768.612 102.775 768.196 102.775ZM55.2351 103.069C54.8291 103.069 54.4317 102.855 54.196 102.455C51.5143 97.9621 49.0141 93.2954 46.7656 88.5888C46.4521 87.9354 46.6903 87.1354 47.2962 86.802C47.9022 86.4554 48.6463 86.7221 48.9585 87.3755C51.1712 92.0021 53.6308 96.5889 56.2705 101.016C56.6395 101.629 56.4741 102.455 55.9027 102.855C55.6954 103.002 55.4634 103.069 55.2351 103.069ZM73.344 128.069C73.0145 128.069 72.685 127.922 72.4419 127.642C69.0432 123.722 65.7988 119.629 62.7988 115.496C62.3779 114.922 62.4717 114.082 63.0073 113.629C63.5454 113.176 64.3191 113.269 64.74 113.855C67.6968 117.922 70.8943 121.949 74.2449 125.829C74.7101 126.362 74.6842 127.202 74.1856 127.709C73.9487 127.949 73.6463 128.069 73.344 128.069ZM750.531 128.135C750.235 128.135 749.939 128.029 749.702 127.789C749.197 127.295 749.159 126.455 749.618 125.909C752.909 121.989 756.043 117.909 758.928 113.775C759.336 113.189 760.11 113.069 760.656 113.509C761.2 113.949 761.308 114.789 760.898 115.375C757.968 119.575 754.788 123.722 751.446 127.696C751.203 127.989 750.867 128.135 750.531 128.135ZM95.0613 149.455C94.796 149.455 94.5282 149.362 94.3024 149.175C90.3731 145.855 86.5672 142.389 82.9896 138.869C82.4848 138.375 82.449 137.535 82.9069 136.989C83.366 136.442 84.1447 136.402 84.6494 136.896C88.1826 140.362 91.9416 143.789 95.8228 147.069C96.3596 147.522 96.4534 148.362 96.0338 148.935C95.7907 149.282 95.4279 149.455 95.0613 149.455ZM729.056 149.802C728.693 149.802 728.334 149.629 728.089 149.296C727.665 148.722 727.753 147.882 728.286 147.429C732.137 144.109 735.862 140.642 739.357 137.122C739.855 136.629 740.635 136.655 741.1 137.189C741.564 137.735 741.537 138.576 741.039 139.082C737.497 142.642 733.724 146.149 729.825 149.509C729.596 149.709 729.326 149.802 729.056 149.802ZM119.359 167.322C119.146 167.322 118.928 167.269 118.731 167.135C114.439 164.389 110.241 161.509 106.252 158.575C105.689 158.162 105.541 157.335 105.925 156.722C106.308 156.122 107.074 155.962 107.639 156.375C111.586 159.269 115.742 162.122 119.99 164.842C120.576 165.215 120.77 166.042 120.422 166.669C120.191 167.095 119.781 167.322 119.359 167.322ZM704.867 167.842C704.448 167.842 704.038 167.615 703.806 167.189C703.457 166.562 703.647 165.749 704.231 165.362C708.469 162.616 712.609 159.749 716.538 156.829C717.099 156.402 717.868 156.562 718.255 157.162C718.641 157.776 718.499 158.602 717.938 159.016C713.967 161.976 709.782 164.882 705.501 167.655C705.302 167.789 705.082 167.842 704.867 167.842ZM145.419 182.042C145.246 182.042 145.071 182.002 144.905 181.922C140.371 179.669 135.908 177.309 131.641 174.896C131.036 174.562 130.803 173.749 131.117 173.096C131.432 172.456 132.18 172.202 132.782 172.535C137.014 174.922 141.439 177.269 145.936 179.496C146.556 179.802 146.826 180.602 146.541 181.269C146.334 181.762 145.887 182.042 145.419 182.042ZM678.845 182.642C678.378 182.642 677.931 182.349 677.724 181.855C677.439 181.189 677.709 180.402 678.328 180.096C682.817 177.856 687.238 175.495 691.466 173.109C692.07 172.762 692.816 173.015 693.133 173.669C693.45 174.322 693.217 175.122 692.613 175.469C688.347 177.882 683.89 180.255 679.362 182.509C679.194 182.602 679.019 182.642 678.845 182.642ZM172.658 194.055C172.518 194.055 172.377 194.016 172.238 193.962C167.555 192.149 162.917 190.215 158.455 188.255C157.823 187.989 157.521 187.202 157.776 186.522C158.034 185.842 158.751 185.509 159.385 185.789C163.817 187.735 168.424 189.642 173.076 191.455C173.717 191.709 174.05 192.469 173.818 193.162C173.637 193.709 173.163 194.055 172.658 194.055ZM651.61 194.655C651.104 194.655 650.629 194.309 650.448 193.762C650.218 193.069 650.55 192.309 651.191 192.055C655.84 190.255 660.447 188.349 664.884 186.389C665.514 186.122 666.234 186.442 666.492 187.122C666.748 187.802 666.445 188.589 665.814 188.869C661.347 190.829 656.709 192.749 652.028 194.575C651.889 194.629 651.748 194.655 651.61 194.655ZM200.679 203.749C200.568 203.749 200.454 203.736 200.342 203.696C195.553 202.229 190.799 200.682 186.213 199.096C185.564 198.869 185.206 198.122 185.413 197.429C185.622 196.722 186.313 196.336 186.965 196.562C191.525 198.136 196.251 199.669 201.015 201.135C201.671 201.335 202.051 202.069 201.866 202.775C201.712 203.362 201.217 203.749 200.679 203.749ZM623.576 204.309C623.038 204.309 622.542 203.922 622.389 203.335C622.204 202.629 622.587 201.896 623.243 201.696C628.007 200.242 632.736 198.722 637.299 197.149C637.95 196.922 638.643 197.309 638.849 198.016C639.057 198.709 638.698 199.456 638.047 199.682C633.459 201.269 628.702 202.802 623.912 204.255C623.8 204.295 623.687 204.309 623.576 204.309ZM229.223 211.496L228.955 211.469C224.104 210.309 219.273 209.069 214.597 207.802C213.937 207.629 213.534 206.895 213.701 206.189C213.866 205.469 214.54 205.042 215.198 205.216C219.852 206.482 224.66 207.709 229.489 208.855C230.154 209.015 230.575 209.735 230.428 210.455C230.299 211.069 229.788 211.496 229.223 211.496ZM595.017 212.002C594.451 212.002 593.94 211.576 593.813 210.949C593.667 210.229 594.089 209.522 594.754 209.362C599.585 208.216 604.395 207.002 609.054 205.749C609.715 205.576 610.384 206.015 610.548 206.722C610.714 207.442 610.31 208.162 609.649 208.335C604.969 209.602 600.135 210.816 595.283 211.962L595.017 212.002ZM258.114 217.589L257.906 217.575C253.026 216.669 248.145 215.709 243.397 214.709C242.728 214.562 242.291 213.869 242.421 213.149C242.551 212.416 243.198 211.949 243.868 212.096C248.597 213.082 253.459 214.042 258.32 214.935C258.992 215.069 259.445 215.749 259.329 216.482C259.226 217.122 258.704 217.589 258.114 217.589ZM566.111 218.016C565.519 218.016 564.997 217.549 564.896 216.896C564.783 216.176 565.236 215.482 565.909 215.362C570.782 214.482 575.647 213.536 580.367 212.562C581.044 212.416 581.684 212.896 581.813 213.616C581.941 214.336 581.503 215.042 580.834 215.175C576.094 216.162 571.209 217.109 566.317 217.989L566.111 218.016ZM287.236 222.255H287.077C282.152 221.575 277.236 220.842 272.469 220.069C271.795 219.962 271.33 219.282 271.43 218.562C271.53 217.829 272.164 217.335 272.831 217.442C277.582 218.202 282.48 218.922 287.389 219.602C288.065 219.695 288.544 220.362 288.457 221.096C288.378 221.762 287.847 222.255 287.236 222.255ZM536.98 222.602C536.366 222.602 535.834 222.109 535.757 221.429C535.672 220.709 536.152 220.042 536.828 219.949C541.73 219.282 546.63 218.562 551.391 217.816C552.07 217.709 552.692 218.216 552.791 218.949C552.889 219.669 552.422 220.349 551.748 220.455C546.97 221.202 542.052 221.922 537.134 222.589L536.98 222.602ZM316.505 225.709L316.391 225.696C311.441 225.216 306.505 224.682 301.721 224.122C301.043 224.042 300.553 223.375 300.627 222.642C300.701 221.909 301.312 221.389 301.987 221.469C306.758 222.029 311.68 222.562 316.615 223.042C317.293 223.109 317.794 223.762 317.733 224.496C317.675 225.189 317.135 225.709 316.505 225.709ZM507.701 225.962C507.068 225.962 506.53 225.442 506.473 224.749C506.413 224.016 506.915 223.362 507.594 223.296C512.497 222.829 517.419 222.322 522.225 221.762C522.899 221.696 523.511 222.216 523.582 222.949C523.654 223.682 523.163 224.336 522.485 224.416C517.665 224.962 512.727 225.482 507.811 225.962H507.701ZM345.867 228.082H345.793C340.877 227.762 335.928 227.402 331.084 227.016C330.404 226.962 329.895 226.322 329.945 225.589C329.996 224.855 330.575 224.296 331.267 224.349C336.098 224.749 341.035 225.096 345.939 225.416C346.619 225.456 347.138 226.096 347.098 226.829C347.059 227.536 346.515 228.082 345.867 228.082ZM478.332 228.255C477.682 228.255 477.138 227.709 477.101 226.989C477.063 226.255 477.583 225.629 478.263 225.589C483.193 225.282 488.131 224.949 492.938 224.562C493.626 224.536 494.209 225.069 494.257 225.802C494.306 226.535 493.794 227.176 493.114 227.229C488.296 227.602 483.346 227.949 478.403 228.255H478.332ZM375.284 229.522H375.245C370.317 229.349 365.361 229.149 360.515 228.909C359.833 228.869 359.306 228.255 359.337 227.522C359.367 226.775 359.956 226.242 360.626 226.242C365.462 226.482 370.407 226.682 375.322 226.855C376.004 226.869 376.539 227.482 376.517 228.229C376.496 228.949 375.948 229.522 375.284 229.522ZM448.909 229.616C448.244 229.616 447.695 229.042 447.675 228.322C447.656 227.575 448.192 226.962 448.874 226.949C453.821 226.789 458.767 226.602 463.574 226.375C464.292 226.375 464.832 226.922 464.859 227.655C464.888 228.389 464.36 229.002 463.679 229.042C458.861 229.255 453.904 229.456 448.945 229.616H448.909ZM404.728 230.122H404.719C399.798 230.082 394.839 230.015 389.981 229.922C389.3 229.895 388.758 229.296 388.77 228.562C388.784 227.816 389.34 227.255 390.028 227.255C394.876 227.349 399.825 227.415 404.737 227.455C405.418 227.455 405.967 228.055 405.962 228.789C405.957 229.522 405.406 230.122 404.728 230.122ZM419.457 230.135C418.778 230.135 418.226 229.549 418.223 228.816C418.22 228.069 418.769 227.469 419.451 227.469C424.382 227.442 429.332 227.389 434.166 227.309C434.846 227.282 435.409 227.882 435.42 228.616C435.431 229.349 434.888 229.962 434.207 229.975C429.363 230.055 424.403 230.109 419.462 230.135H419.457Z" fill="#FFF8CF"/>
<path d="M30.8829 11.6554C30.2017 11.6554 29.6488 11.0554 29.6488 10.3221C29.6488 7.6954 29.6957 5.05555 29.7944 2.28222C29.8216 1.54888 30.4127 0.975343 31.0754 1.00201C31.7566 1.02868 32.2873 1.64206 32.2614 2.38873C32.1639 5.12206 32.117 7.72206 32.117 10.3221C32.117 11.0554 31.5653 11.6554 30.8829 11.6554Z" fill="#FFF8CF"/>
<path d="M322.691 49.1887C314.406 49.1887 308.271 41.8287 307.913 33.1887C307.554 24.5354 314.977 17.2154 322.722 17.1887C352.578 17.1221 382.436 17.0554 412.292 16.9887C465.219 16.8687 518.146 16.7489 571.074 16.6155C624.272 16.4955 677.471 16.3754 730.669 16.2554C730.68 16.2554 730.691 16.2554 730.702 16.2554C738.988 16.2554 745.12 23.6154 745.479 32.2554C745.837 40.9087 738.415 48.2421 730.669 48.2554C700.814 48.3221 670.956 48.3887 641.1 48.4554C588.173 48.5887 535.246 48.7088 482.318 48.8288C429.12 48.9488 375.921 49.0687 322.722 49.1887C322.711 49.1887 322.701 49.1887 322.691 49.1887Z" fill="#EDDFFF"/>
<path d="M236.371 50.802C226.743 50.802 219.815 39.5355 222.759 29.8288C225.071 22.2155 231.633 19.0153 238.529 18.7353C247.769 18.362 257.071 17.7088 266.317 17.7088C266.46 17.7088 266.604 17.7088 266.747 17.7088C274.535 17.7088 281.174 25.5087 281.125 33.802C281.073 42.562 274.225 49.4154 266.317 49.7088C256.488 50.0688 246.658 50.442 236.829 50.802C236.676 50.802 236.524 50.802 236.371 50.802Z" fill="#EDDFFF"/>
<path d="M451.152 92C457.493 92 463.582 93.0372 469.275 94.9601C446.8 102.516 430.616 123.752 430.616 148.774C430.616 173.796 446.8 195.031 469.275 202.587C463.582 204.51 457.493 205.547 451.152 205.547C419.796 205.547 394.378 180.129 394.378 148.774C394.378 117.418 419.796 92 451.152 92Z" fill="#541836"/>
<path d="M408.773 92C412.425 92 415.992 92.3458 419.45 93.0036C416.912 93.4927 414.441 94.1504 412.037 94.9601C389.562 102.516 373.379 123.752 373.379 148.774C373.379 173.796 389.562 195.031 412.037 202.587C414.441 203.397 416.912 204.055 419.45 204.544C415.992 205.202 412.425 205.547 408.773 205.547C402.44 205.547 396.343 204.51 390.659 202.587C368.183 195.031 352 173.796 352 148.774C352 123.752 368.183 102.516 390.659 94.9601C396.343 93.0372 402.44 92 408.773 92Z" fill="#541836"/>
<path d="M469.275 94.9601C446.8 102.516 430.616 123.752 430.616 148.774C430.616 152.105 430.903 155.369 431.451 158.54C431.569 159.214 431.696 159.881 431.839 160.547C435.997 180.272 450.401 196.22 469.224 202.57C446.446 199.433 424.637 173.754 424.637 148.774C424.637 123.769 445.231 96.8744 469.275 94.9601Z" fill="#541836"/>
<path d="M419.45 93.0036C417.679 93.3493 415.933 93.771 414.23 94.2686C413.496 94.4878 412.762 94.7155 412.037 94.96C389.562 102.516 373.379 123.752 373.379 148.774C373.379 156.313 374.846 163.498 377.511 170.085C377.739 170.65 377.975 171.207 378.228 171.763C383.372 183.368 392.286 192.923 403.427 198.868C403.95 199.146 404.472 199.416 404.995 199.678C407.264 200.799 409.617 201.769 412.037 202.587C414.441 203.397 416.903 204.055 419.442 204.544C414.238 204.645 408.453 203.388 406.058 202.587C383.583 195.031 367.399 173.796 367.399 148.774C367.399 123.752 383.583 102.516 406.058 94.96C408.453 94.1504 413.167 93.0289 419.433 93.0036C419.442 93.0036 419.442 93.0036 419.45 93.0036Z" fill="#541836"/>
<path d="M415.284 175.297C406.092 164.224 403.503 148.841 408.243 135.306C409.592 131.451 411.565 127.842 413.96 124.536C414.762 123.431 414.146 121.719 413.058 121.078C411.776 120.328 410.401 120.876 409.592 121.981C404.844 128.508 401.993 136.216 401.074 144.211C400.163 152.164 401.538 160.218 404.684 167.538C406.455 171.662 408.85 175.432 411.709 178.881C412.577 179.927 414.382 179.783 415.284 178.881C416.33 177.835 416.161 176.351 415.284 175.297Z" fill="#541836"/>
<path d="M421.744 114.559L421.812 114.492C422.326 113.935 422.857 113.379 423.456 112.915C424.047 112.468 424.687 112.105 425.354 111.793C425.902 111.54 426.366 110.832 426.518 110.275C426.686 109.677 426.61 108.867 426.265 108.327C425.657 107.383 424.485 106.86 423.38 107.18C422.731 107.374 422.098 107.762 421.517 108.125C420.918 108.496 420.344 108.918 419.796 109.364C418.843 110.123 418.076 111.017 417.342 111.979C417.156 112.266 417.055 112.586 417.038 112.915C416.971 113.252 416.979 113.59 417.089 113.927C417.249 114.517 417.705 115.15 418.253 115.437C418.944 115.808 419.788 115.858 420.513 115.563C421.036 115.352 421.373 114.956 421.744 114.559Z" fill="#541836"/>
<path d="M363.621 168.103C358.772 158.363 358.595 146.362 363.216 136.503C363.798 135.272 363.562 133.779 362.306 133.045C361.209 132.405 359.43 132.708 358.848 133.956C353.408 145.552 353.535 159.172 359.253 170.658C359.86 171.881 361.589 172.219 362.71 171.561C363.959 170.836 364.228 169.326 363.621 168.103Z" fill="#541836"/>
<path d="M367.602 124.806C367.77 124.367 367.914 123.912 368.133 123.516C368.681 122.495 369.457 121.618 370.376 120.918C370.891 120.513 371.262 120.083 371.439 119.434C371.608 118.827 371.532 118.026 371.186 117.486C370.84 116.946 370.317 116.474 369.676 116.322C369.052 116.179 368.26 116.187 367.728 116.583C367.104 117.039 366.497 117.511 365.957 118.059C364.667 119.358 363.646 120.96 362.98 122.672C362.634 123.575 362.466 124.528 362.98 125.413C363.284 125.936 363.891 126.434 364.49 126.577C365.367 126.771 366.303 126.543 366.944 125.911C367.247 125.599 367.441 125.211 367.602 124.806Z" fill="#541836"/>
<path d="M410.993 138.279C438.146 130.63 463.916 132.776 485.869 144.033C507.822 155.291 482.726 187.758 482.726 187.758C482.726 187.758 487.125 148.581 456.332 144.033C414.578 137.867 374.873 156.358 374.873 156.358C374.873 156.358 399.99 141.379 410.993 138.279Z" fill="#541836"/>
<path d="M402.494 143.534C429.672 135.887 456.844 134.932 478.818 146.186C500.792 157.44 483.221 189.758 483.221 189.758C483.221 189.758 483.221 153.764 452.398 149.217C410.604 143.052 373.873 156.224 373.873 156.224C373.873 156.224 391.48 146.633 402.494 143.534Z" fill="#541836"/>
<path d="M412.824 144.682C424.786 140.567 441.117 139.926 455.291 142.86C459.327 143.695 463.087 144.831 466.514 146.165C467.659 146.611 469.486 146.376 470.194 145.861C471.023 145.253 470.482 144.545 469.337 144.095C462.571 141.452 454.504 139.706 446.079 138.91C437.699 138.121 429.147 138.466 421.322 139.725C416.914 140.434 412.862 141.468 409.136 142.748C408.006 143.137 408.107 144.042 409.036 144.53C410.112 145.096 411.685 145.074 412.824 144.682Z" fill="#541836"/>
<path d="M445.152 92C451.493 92 457.582 93.0372 463.275 94.9601C440.8 102.516 424.616 123.752 424.616 148.774C424.616 173.796 440.8 195.031 463.275 202.587C457.582 204.51 451.493 205.547 445.152 205.547C413.796 205.547 388.378 180.129 388.378 148.774C388.378 117.418 413.796 92 445.152 92Z" fill="#F4C27A"/>
<path d="M402.773 92C406.425 92 409.992 92.3458 413.45 93.0036C410.912 93.4927 408.441 94.1504 406.037 94.9601C383.562 102.516 367.379 123.752 367.379 148.774C367.379 173.796 383.562 195.031 406.037 202.587C408.441 203.397 410.912 204.055 413.45 204.544C409.992 205.202 406.425 205.547 402.773 205.547C396.44 205.547 390.343 204.51 384.659 202.587C362.183 195.031 346 173.796 346 148.774C346 123.752 362.183 102.516 384.659 94.9601C390.343 93.0372 396.44 92 402.773 92Z" fill="#F4C27A"/>
<path d="M463.275 94.9601C440.8 102.516 424.616 123.752 424.616 148.774C424.616 152.105 424.903 155.369 425.451 158.54C425.569 159.214 425.696 159.881 425.839 160.547C429.997 180.272 444.401 196.22 463.224 202.57C440.446 199.433 418.637 173.754 418.637 148.774C418.637 123.769 439.231 96.8744 463.275 94.9601Z" fill="#C99E63"/>
<path d="M413.45 93.0036C411.679 93.3493 409.933 93.771 408.23 94.2686C407.496 94.4878 406.762 94.7155 406.037 94.96C383.562 102.516 367.379 123.752 367.379 148.774C367.379 156.313 368.846 163.498 371.511 170.085C371.739 170.65 371.975 171.207 372.228 171.763C377.372 183.368 386.286 192.923 397.427 198.868C397.95 199.146 398.472 199.416 398.995 199.678C401.264 200.799 403.617 201.769 406.037 202.587C408.441 203.397 410.903 204.055 413.442 204.544C408.238 204.645 402.453 203.388 400.058 202.587C377.583 195.031 361.399 173.796 361.399 148.774C361.399 123.752 377.583 102.516 400.058 94.96C402.453 94.1504 407.167 93.0289 413.433 93.0036C413.442 93.0036 413.442 93.0036 413.45 93.0036Z" fill="#C99E63"/>
<path d="M409.284 175.297C400.092 164.224 397.503 148.841 402.243 135.306C403.592 131.451 405.565 127.842 407.96 124.536C408.762 123.431 408.146 121.719 407.058 121.078C405.776 120.328 404.401 120.876 403.592 121.981C398.844 128.508 395.993 136.216 395.074 144.211C394.163 152.164 395.538 160.218 398.684 167.538C400.455 171.662 402.85 175.432 405.709 178.881C406.577 179.927 408.382 179.783 409.284 178.881C410.33 177.835 410.161 176.351 409.284 175.297Z" fill="white"/>
<path d="M415.744 114.559L415.812 114.492C416.326 113.935 416.857 113.379 417.456 112.915C418.047 112.468 418.687 112.105 419.354 111.793C419.902 111.54 420.366 110.832 420.518 110.275C420.686 109.677 420.61 108.867 420.265 108.327C419.657 107.383 418.485 106.86 417.38 107.18C416.731 107.374 416.098 107.762 415.517 108.125C414.918 108.496 414.344 108.918 413.796 109.364C412.843 110.123 412.076 111.017 411.342 111.979C411.156 112.266 411.055 112.586 411.038 112.915C410.971 113.252 410.979 113.59 411.089 113.927C411.249 114.517 411.705 115.15 412.253 115.437C412.944 115.808 413.788 115.858 414.513 115.563C415.036 115.352 415.373 114.956 415.744 114.559Z" fill="white"/>
<path d="M357.621 168.103C352.772 158.363 352.595 146.362 357.216 136.503C357.798 135.272 357.562 133.779 356.306 133.045C355.209 132.405 353.43 132.708 352.848 133.956C347.408 145.552 347.535 159.172 353.253 170.658C353.86 171.881 355.589 172.219 356.71 171.561C357.959 170.836 358.228 169.326 357.621 168.103Z" fill="white"/>
<path d="M361.602 124.806C361.77 124.367 361.914 123.912 362.133 123.516C362.681 122.495 363.457 121.618 364.376 120.918C364.891 120.513 365.262 120.083 365.439 119.434C365.608 118.827 365.532 118.026 365.186 117.486C364.84 116.946 364.317 116.474 363.676 116.322C363.052 116.179 362.26 116.187 361.728 116.583C361.104 117.039 360.497 117.511 359.957 118.059C358.667 119.358 357.646 120.96 356.98 122.672C356.634 123.575 356.466 124.528 356.98 125.413C357.284 125.936 357.891 126.434 358.49 126.577C359.367 126.771 360.303 126.543 360.944 125.911C361.247 125.599 361.441 125.211 361.602 124.806Z" fill="white"/>
<path d="M403.993 138.279C431.146 130.63 456.916 132.776 478.869 144.033C500.822 155.291 475.726 187.758 475.726 187.758C475.726 187.758 480.125 148.581 449.332 144.033C407.578 137.867 367.873 156.358 367.873 156.358C367.873 156.358 392.99 141.379 403.993 138.279Z" fill="#C99E63"/>
<path d="M395.247 143.534C422.191 135.887 449.129 134.932 470.913 146.186C492.698 157.44 475.278 189.758 475.278 189.758C475.278 189.758 475.278 153.764 444.721 149.217C403.287 143.052 366.873 156.224 366.873 156.224C366.873 156.224 384.328 146.633 395.247 143.534Z" fill="#F4C27A"/>
<path d="M405.707 144.682C417.669 140.567 434 139.926 448.174 142.86C452.21 143.695 455.97 144.831 459.397 146.165C460.542 146.611 462.369 146.376 463.077 145.861C463.906 145.253 463.365 144.545 462.22 144.095C455.454 141.452 447.386 139.706 438.962 138.91C430.582 138.121 422.03 138.466 414.205 139.725C409.796 140.434 405.745 141.468 402.019 142.748C400.889 143.137 400.99 144.042 401.919 144.53C402.995 145.096 404.568 145.074 405.707 144.682Z" fill="white"/>
</svg>
